<svg width="391" height="407" viewBox="0 0 391 407" fill="none" xmlns="http://www.w3.org/2000/svg">
<path d="M336.293 393.032C366.507 393.032 391 378.894 391 361.454C391 344.015 366.507 329.877 336.293 329.877C306.079 329.877 281.586 344.015 281.586 361.454C281.586 378.894 306.079 393.032 336.293 393.032Z" fill="#E0E0E0"/>
<path d="M148.296 406.959C147.399 406.95 146.532 406.633 145.841 406.061C145.149 405.49 144.674 404.699 144.495 403.82L143.611 399.167C141.615 398.802 139.643 398.317 137.706 397.714H137.554L129.362 401.514C128.689 401.805 127.959 401.938 127.226 401.905C126.494 401.871 125.778 401.672 125.135 401.321L117.004 396.606C116.514 396.343 116.099 395.957 115.802 395.486C115.504 395.016 115.333 394.476 115.306 393.92C115.278 393.364 115.395 392.81 115.644 392.313C115.894 391.815 116.268 391.39 116.73 391.079L121.669 387.523C121.221 386.926 120.81 386.302 120.439 385.654L110.032 385.004C109.088 384.944 108.201 384.528 107.552 383.839C106.903 383.151 106.54 382.241 106.536 381.295V375.199C106.537 374.253 106.897 373.342 107.545 372.651C108.192 371.961 109.078 371.542 110.022 371.48L120.429 370.82C120.8 370.175 121.211 369.554 121.659 368.961L116.699 365.435C116.237 365.124 115.863 364.7 115.614 364.202C115.364 363.704 115.248 363.15 115.275 362.594C115.303 362.038 115.474 361.499 115.771 361.028C116.069 360.557 116.483 360.172 116.974 359.908L125.104 355.194C125.812 354.799 126.611 354.596 127.421 354.605C128.08 354.595 128.732 354.73 129.332 355.001L137.533 358.801H137.635C139.596 358.193 141.591 357.704 143.611 357.338L144.495 352.684C144.672 351.805 145.147 351.012 145.839 350.441C146.531 349.869 147.398 349.553 148.296 349.545H160.298C161.196 349.555 162.062 349.872 162.754 350.443C163.446 351.014 163.92 351.805 164.099 352.684L164.984 357.338C166.975 357.704 168.943 358.185 170.878 358.78H171.031L179.232 354.981C179.829 354.711 180.478 354.576 181.133 354.584C181.947 354.574 182.749 354.777 183.46 355.174L191.59 359.888C192.079 360.152 192.492 360.538 192.788 361.008C193.085 361.478 193.256 362.016 193.285 362.572C193.313 363.127 193.199 363.68 192.952 364.178C192.705 364.675 192.334 365.102 191.875 365.415L186.925 368.971C187.375 369.566 187.789 370.187 188.165 370.83L198.572 371.491C199.517 371.553 200.402 371.971 201.05 372.662C201.697 373.352 202.058 374.263 202.058 375.209V381.305C202.055 382.251 201.694 383.16 201.047 383.85C200.4 384.54 199.516 384.96 198.572 385.024L188.165 385.674C187.791 386.322 187.377 386.947 186.925 387.544L191.875 391.1C192.334 391.413 192.705 391.839 192.952 392.337C193.199 392.835 193.313 393.388 193.285 393.943C193.256 394.498 193.085 395.036 192.788 395.506C192.492 395.976 192.079 396.362 191.59 396.627L183.46 401.341C182.747 401.733 181.946 401.935 181.133 401.93C180.478 401.933 179.831 401.798 179.232 401.534L171.031 397.734H170.929C168.972 398.345 166.98 398.837 164.963 399.207L164.079 403.85C163.902 404.731 163.428 405.525 162.736 406.098C162.044 406.671 161.177 406.99 160.278 407L148.296 406.959ZM154.302 372.74C149.962 372.638 145.668 373.653 141.832 375.687C139.038 377.302 137.432 379.365 137.432 381.366C137.432 383.368 139.038 385.43 141.832 387.046C145.705 388.983 149.977 389.992 154.307 389.992C158.638 389.992 162.909 388.983 166.782 387.046C169.577 385.43 171.173 383.368 171.173 381.366C171.173 379.365 169.577 377.302 166.782 375.687C162.943 373.654 158.646 372.64 154.302 372.74Z" fill="#E0E0E0"/>
<path d="M193.213 233.065L189.809 231.105C188.514 230.448 187.083 230.107 185.632 230.107C184.18 230.107 182.749 230.448 181.455 231.105L1.72262 334.889C-0.574208 336.21 -0.574208 338.384 1.72262 339.705L5.11705 341.666C6.41342 342.322 7.84606 342.664 9.29911 342.664C10.7522 342.664 12.1848 342.322 13.4812 341.666L68.0766 310.17L90.2014 322.931C96.4618 326.548 106.716 326.548 112.977 322.931L150.641 301.188C155.986 298.14 155.986 293.06 150.641 290.012L126.869 276.185L193.223 237.891C195.51 236.56 195.51 234.396 193.213 233.065Z" fill="#E0E0E0"/>
<g opacity="0.1">
<path opacity="0.1" d="M200.175 57.0731L37.5673 150.921V242.9C37.5553 243.433 37.704 243.957 37.9942 244.404C38.0912 244.565 38.2263 244.699 38.3877 244.794C38.549 244.89 38.7316 244.945 38.919 244.953C39.1524 244.948 39.3803 244.881 39.5796 244.76L204.047 149.753V59.3286C204.047 56.8292 202.309 55.8335 200.175 57.0731Z" fill="#103E13"/>
</g>
<path d="M116.381 317.526L147.541 299.522C150.752 297.663 152.358 295.235 152.358 292.806C152.358 290.378 152.358 288.468 152.358 288.468L123.028 271.836C122.126 271.246 121.376 270.451 120.837 269.518C120.299 268.584 119.987 267.537 119.928 266.461V228.056L65.5256 259.502V297.907C65.5777 298.977 65.8808 300.02 66.4104 300.952C66.94 301.884 67.6813 302.679 68.5745 303.271L93.0673 317.495C99.5411 321.234 109.958 321.234 116.381 317.526Z" fill="#37474F"/>
<path d="M78.5851 304.704V309.022L68.6152 303.271C67.7135 302.681 66.9632 301.887 66.4248 300.953C65.8864 300.02 65.5749 298.973 65.5155 297.897V259.502L75.8817 253.518C76.1053 256.149 76.3289 258.872 76.5525 261.524L69.2758 265.73V295.733C69.3247 296.805 69.6264 297.851 70.1562 298.785C70.686 299.719 71.429 300.515 72.3247 301.107L78.5851 304.704Z" fill="#263238"/>
<path d="M69.2758 295.743C69.3295 296.814 69.6332 297.858 70.1626 298.792C70.6919 299.725 71.4324 300.521 72.3246 301.117L93.0571 313.198C99.4903 316.906 109.907 316.906 116.33 313.198L147.5 295.194C153.933 291.486 153.933 285.471 147.5 281.763L126.747 269.672C125.843 269.084 125.091 268.29 124.553 267.356C124.014 266.422 123.704 265.374 123.648 264.297V234.305L69.2758 265.73V295.743Z" fill="#455A64"/>
<path opacity="0.15" d="M133.12 273.32L126.808 269.672C125.904 269.084 125.152 268.29 124.614 267.356C124.075 266.422 123.765 265.374 123.709 264.297V234.305L69.2758 265.73V295.743C69.3295 296.814 69.6332 297.858 70.1626 298.792C70.6919 299.725 71.4324 300.521 72.3246 301.117L78.5342 304.694L133.12 273.32Z" fill="#103E13"/>
<path d="M4.43592 319.426C5.61265 319.994 6.90665 320.277 8.2132 320.252C9.51975 320.228 10.8021 319.896 11.9565 319.284C38.7156 303.84 164.269 231.369 191.028 215.936C192.154 215.198 193.092 214.205 193.764 213.039C194.437 211.872 194.826 210.564 194.9 209.22V59.3082C194.954 57.9805 194.643 56.6634 194.001 55.4998C193.359 54.3362 192.411 53.3706 191.259 52.7078C190.107 52.0451 188.795 51.7104 187.466 51.7402C186.137 51.77 184.842 52.1632 183.721 52.8769L4.67983 156.225C3.56091 156.967 2.63154 157.962 1.96618 159.128C1.30083 160.294 0.918006 161.6 0.848389 162.941V312.852C0.891758 314.152 1.23881 315.423 1.86176 316.565C2.48472 317.706 3.36628 318.686 4.43592 319.426Z" fill="#37474F"/>
<path d="M11.9566 319.283L191.028 215.925C192.156 215.189 193.095 214.197 193.768 213.03C194.44 211.863 194.828 210.554 194.9 209.209V59.3082C194.9 56.8291 193.162 55.8334 191.028 57.073L11.9566 160.421C10.8285 161.157 9.88989 162.149 9.21711 163.316C8.54432 164.483 8.15629 165.792 8.08452 167.137V317.048C8.07435 319.517 9.81222 320.513 11.9566 319.283Z" fill="#455A64"/>
<path d="M13.2067 298.963V168.915C13.2517 168.089 13.4904 167.285 13.9035 166.569C14.3167 165.852 14.8926 165.243 15.5848 164.79L187.39 65.6277C188.701 64.8657 189.768 65.4855 189.768 66.9993V197.048C189.723 197.876 189.484 198.683 189.069 199.401C188.654 200.12 188.075 200.73 187.38 201.183L15.5848 300.345C14.2738 301.097 13.2067 300.487 13.2067 298.963Z" fill="#4CAF4F"/>
<path opacity="0.75" d="M13.2067 298.963V168.915C13.2517 168.089 13.4904 167.285 13.9035 166.569C14.3167 165.852 14.8926 165.243 15.5848 164.79L187.39 65.6277C188.701 64.8657 189.768 65.4855 189.768 66.9993V197.048C189.723 197.876 189.484 198.683 189.069 199.401C188.654 200.12 188.075 200.73 187.38 201.183L15.5848 300.345C14.2738 301.097 13.2067 300.487 13.2067 298.963Z" fill="white"/>
<path d="M1.94614 159.121L9.22283 163.317C8.52891 164.479 8.13431 165.795 8.07441 167.147V317.048C8.07441 319.304 9.60902 320.564 11.9567 319.284C10.8046 319.903 9.52144 320.239 8.21357 320.264C6.9057 320.288 5.61077 320.001 4.43607 319.426C3.37189 318.791 2.48228 317.901 1.8472 316.837C1.21213 315.773 0.8515 314.568 0.797729 313.33V162.961C0.849035 161.604 1.24419 160.283 1.94614 159.121Z" fill="#263238"/>
<path d="M93.5754 261.839L109.399 252.695C110.192 252.248 110.822 252.562 110.822 253.416C110.786 253.893 110.639 254.355 110.392 254.764C110.145 255.174 109.805 255.519 109.399 255.773L93.5754 264.917C92.7929 265.374 92.1526 265.049 92.1526 264.206C92.1866 263.727 92.3332 263.263 92.5804 262.852C92.8277 262.441 93.1686 262.093 93.5754 261.839Z" fill="#4CAF4F"/>
<path d="M35.2803 240.401C35.5147 240.394 35.7428 240.323 35.9409 240.198L210.012 139.613C210.726 139.144 211.321 138.515 211.749 137.776C212.178 137.037 212.429 136.209 212.482 135.356V3.86493C212.482 2.94036 212.096 2.39172 211.465 2.39172C211.106 2.40158 210.755 2.50676 210.449 2.69652L36.3677 103.24C35.6538 103.712 35.0592 104.343 34.6307 105.083C34.2021 105.824 33.9514 106.654 33.8981 107.508V238.308C33.8886 238.84 34.0371 239.364 34.325 239.812C34.4227 239.982 34.5612 240.124 34.728 240.227C34.8948 240.33 35.0846 240.39 35.2803 240.401Z" fill="#F5F7FA"/>
<path d="M31.1643 238.694C31.459 238.846 33.5526 240.035 34.4672 240.564C34.1309 240.293 33.8635 239.947 33.6868 239.553C33.5102 239.159 33.4294 238.729 33.4509 238.298V116.276L30.0057 114.244V236.337C29.9754 236.797 30.0665 237.257 30.2698 237.67C30.4731 238.084 30.7816 238.437 31.1643 238.694Z" fill="#F5F7FA"/>
<path d="M211.445 2.84895C211.953 2.84895 212.024 3.47887 212.024 3.86495V135.346C211.972 136.119 211.743 136.87 211.355 137.541C210.968 138.212 210.432 138.785 209.789 139.217L35.7173 239.802C35.5855 239.883 35.4349 239.928 35.2803 239.934C34.8026 239.934 34.3859 239.192 34.3859 238.339V107.477C34.4334 106.703 34.66 105.95 35.048 105.278C35.436 104.607 35.9747 104.034 36.6218 103.606L210.693 3.09279C210.918 2.9468 211.177 2.86269 211.445 2.84895ZM211.445 1.9447C211.02 1.95619 210.605 2.08258 210.246 2.31046L36.1645 102.814C35.3825 103.326 34.7321 104.015 34.266 104.825C33.7999 105.635 33.5311 106.544 33.4814 107.477V238.308C33.4814 239.659 34.2335 240.818 35.2803 240.818C35.5968 240.812 35.9057 240.72 36.1746 240.553L210.236 139.969C211.022 139.462 211.677 138.776 212.147 137.967C212.616 137.158 212.888 136.25 212.939 135.316V3.86495C212.939 2.64574 212.329 1.9447 211.445 1.9447Z" fill="#E0E0E0"/>
<path d="M212.93 3.80398V12.8159L33.4822 116.448L30.037 114.416V105.557C30.0753 104.605 30.3551 103.678 30.85 102.864C31.3014 102.063 31.9481 101.388 32.7302 100.904L206.801 0.359728C207.083 0.157263 207.414 0.0351676 207.76 0.00653064C208.105 -0.0221063 208.452 0.0437952 208.763 0.197167C209.261 0.501969 211.619 1.84309 212.096 2.08693C212.172 2.12243 212.24 2.17054 212.3 2.22918C212.381 2.28928 212.453 2.36119 212.513 2.44254C212.582 2.52616 212.64 2.61836 212.686 2.71686C212.748 2.81675 212.793 2.92676 212.818 3.04198C212.857 3.16098 212.884 3.28347 212.899 3.40774C212.921 3.53867 212.931 3.67126 212.93 3.80398Z" fill="#4CAF4F"/>
<path opacity="0.15" d="M212.93 3.80398V12.8159L33.4822 116.448L30.037 114.416V105.557C30.0753 104.605 30.3551 103.678 30.85 102.864C31.3014 102.063 31.9481 101.388 32.7302 100.904L206.801 0.359728C207.083 0.157263 207.414 0.0351676 207.76 0.00653064C208.105 -0.0221063 208.452 0.0437952 208.763 0.197167C209.261 0.501969 211.619 1.84309 212.096 2.08693C212.172 2.12243 212.24 2.17054 212.3 2.22918C212.381 2.28928 212.453 2.36119 212.513 2.44254C212.582 2.52616 212.64 2.61836 212.686 2.71686C212.748 2.81675 212.793 2.92676 212.818 3.04198C212.857 3.16098 212.884 3.28347 212.899 3.40774C212.921 3.53867 212.931 3.67126 212.93 3.80398Z" fill="#103E13"/>
<path d="M212.929 3.804V12.816L33.4814 116.448V107.548C33.4889 106.975 33.599 106.407 33.8067 105.872C33.8369 105.778 33.8743 105.686 33.9185 105.598C34.0239 105.346 34.1461 105.101 34.2843 104.866C34.7332 104.054 35.3843 103.371 36.1746 102.885L210.236 2.31047C210.526 2.09211 210.876 1.96737 211.239 1.95285C211.602 1.93833 211.961 2.03472 212.268 2.22919C212.35 2.2893 212.422 2.36121 212.482 2.44255C212.551 2.52618 212.609 2.61838 212.655 2.71688C212.717 2.81677 212.762 2.92678 212.787 3.042C212.826 3.16099 212.853 3.28349 212.868 3.40776C212.9 3.53777 212.92 3.67037 212.929 3.804Z" fill="#2BB79D"/>
<path d="M194.91 14.6041C194.376 15.0283 193.947 15.5697 193.656 16.1864C193.366 16.8031 193.221 17.4784 193.233 18.1601C193.233 19.5926 193.985 20.314 194.91 19.7755C195.444 19.3513 195.873 18.8098 196.164 18.1932C196.454 17.5765 196.599 16.9012 196.587 16.2195C196.536 14.8479 195.784 14.0656 194.91 14.6041Z" fill="#F5F7FA"/>
<path d="M200.906 11.1091C200.371 11.5322 199.941 12.0735 199.65 12.6904C199.36 13.3073 199.215 13.9832 199.229 14.6651C199.229 16.0875 199.981 16.819 200.906 16.2805C201.442 15.8578 201.874 15.3169 202.166 14.7001C202.459 14.0832 202.605 13.4071 202.593 12.7245C202.593 11.2919 201.841 10.5706 200.906 11.1091Z" fill="#F5F7FA"/>
<path d="M206.963 7.60377C206.427 8.02645 205.996 8.56734 205.703 9.18419C205.41 9.80105 205.264 10.4772 205.276 11.1598C205.276 12.5924 206.028 13.3137 206.963 12.7854C207.496 12.3606 207.925 11.8191 208.216 11.2026C208.506 10.586 208.652 9.91092 208.64 9.22938C208.64 7.79682 207.888 7.07545 206.963 7.60377Z" fill="#F5F7FA"/>
<path d="M210.246 2.31046L36.1746 102.814C35.3788 103.319 34.7247 104.018 34.2741 104.846L30.8594 102.814C31.301 102.005 31.9454 101.326 32.7294 100.843L206.801 0.359728C207.082 0.157263 207.413 0.0351676 207.759 0.00653064C208.104 -0.0221063 208.451 0.0437952 208.762 0.197167C209.24 0.491809 211.476 1.76181 212.045 2.06661C211.747 1.95936 211.429 1.92552 211.115 1.96797C210.802 2.01043 210.504 2.12793 210.246 2.31046Z" fill="#4CAF4F"/>
<g opacity="0.5">
<path opacity="0.5" d="M210.246 2.31045L36.1746 102.814C35.3788 103.319 34.7247 104.018 34.2741 104.846L30.8594 102.814C31.301 102.005 31.9454 101.326 32.7294 100.843L206.801 0.359728C207.082 0.157263 207.413 0.0351676 207.759 0.00653064C208.104 -0.0221063 208.451 0.0437952 208.762 0.197167C209.24 0.491809 211.476 1.76181 212.045 2.06661C211.747 1.95936 211.429 1.92552 211.115 1.96797C210.802 2.01043 210.504 2.12793 210.246 2.31045Z" fill="white"/>
</g>
<path d="M238.967 28.056V151.897C238.912 152.929 238.614 153.934 238.097 154.83C237.579 155.725 236.857 156.485 235.989 157.048L156.82 202.768C156.514 202.956 156.162 203.055 155.803 203.053C155.679 203.067 155.552 203.067 155.427 203.053C155.339 203.033 155.254 203.002 155.173 202.961L155.011 202.88L154.838 202.758C154.779 202.716 154.725 202.668 154.675 202.616C154.442 202.394 154.255 202.128 154.127 201.833C153.919 201.359 153.812 200.847 153.812 200.33V77.0985C153.87 76.0669 154.17 75.0634 154.687 74.1687C155.204 73.2741 155.924 72.5132 156.789 71.9474L235.959 26.3186C236.25 26.1118 236.588 25.9803 236.943 25.936C237.298 25.8917 237.658 25.9359 237.991 26.0646C238.08 26.1078 238.165 26.1588 238.245 26.217C238.507 26.441 238.71 26.7259 238.836 27.0465C238.961 27.3672 239.007 27.7138 238.967 28.056Z" fill="#455A64"/>
<path d="M237.311 26.9384C237.406 26.934 237.5 26.9551 237.585 26.9993H237.636C237.636 26.9993 237.951 27.2635 237.951 28.0153V151.897C237.898 152.751 237.647 153.58 237.218 154.321C236.79 155.061 236.195 155.692 235.481 156.164L156.322 201.884C156.178 201.974 156.014 202.026 155.844 202.037H155.671H155.621L155.539 201.976H155.478L155.427 201.925C155.301 201.795 155.197 201.643 155.123 201.478C154.974 201.135 154.898 200.765 154.899 200.391V77.0985C154.961 76.2469 155.216 75.4205 155.644 74.6814C156.071 73.9423 156.661 73.3097 157.369 72.8313L236.538 27.2025C236.781 27.0449 237.062 26.9538 237.351 26.9384H237.311ZM237.351 25.9224C236.884 25.9366 236.428 26.0732 236.03 26.3186L156.86 71.9474C155.996 72.5132 155.276 73.2741 154.758 74.1687C154.241 75.0634 153.941 76.0669 153.883 77.0985V200.238C153.883 200.756 153.99 201.268 154.198 201.742C154.327 202.037 154.513 202.303 154.747 202.524C154.796 202.577 154.85 202.625 154.909 202.667L155.082 202.788L155.245 202.87C155.325 202.911 155.41 202.941 155.499 202.961C155.624 202.976 155.75 202.976 155.875 202.961C156.209 202.948 156.534 202.85 156.82 202.677L235.989 156.956C236.857 156.394 237.579 155.633 238.097 154.738C238.614 153.843 238.912 152.838 238.967 151.805V28.056C239 27.7203 238.951 27.3818 238.826 27.0688C238.7 26.7558 238.501 26.4776 238.245 26.2576C237.976 26.0571 237.646 25.9533 237.311 25.963L237.351 25.9224Z" fill="#455A64"/>
<g opacity="0.8">
<path opacity="0.8" d="M238.967 28.056V151.897C238.912 152.929 238.614 153.934 238.097 154.83C237.579 155.725 236.857 156.485 235.989 157.048L156.82 202.768C156.514 202.956 156.162 203.055 155.803 203.053C155.679 203.067 155.552 203.067 155.427 203.053C155.339 203.033 155.254 203.002 155.173 202.961L155.011 202.88L154.838 202.758C154.779 202.716 154.725 202.668 154.675 202.616C154.442 202.394 154.255 202.128 154.127 201.833C153.919 201.359 153.812 200.847 153.812 200.33V77.0985C153.87 76.0669 154.17 75.0634 154.687 74.1687C155.204 73.2741 155.924 72.5132 156.789 71.9474L235.959 26.3186C236.25 26.1118 236.588 25.9803 236.943 25.936C237.298 25.8917 237.658 25.9359 237.991 26.0646C238.08 26.1078 238.165 26.1588 238.245 26.217C238.507 26.441 238.71 26.7259 238.836 27.0465C238.961 27.3672 239.007 27.7138 238.967 28.056Z" fill="#455A64"/>
</g>
<path d="M237.991 26.024C237.658 25.8953 237.298 25.8511 236.943 25.8954C236.588 25.9398 236.25 26.0712 235.959 26.278L156.789 71.9068C155.924 72.4726 155.204 73.2335 154.687 74.1281C154.17 75.0228 153.87 76.0263 153.812 77.0579V86.7811L150.021 84.556V74.904C150.075 73.8739 150.372 72.8712 150.888 71.9777C151.404 71.0843 152.123 70.3254 152.988 69.763L232.168 24.1342C232.475 23.9058 232.839 23.7684 233.22 23.7378C233.602 23.7073 233.984 23.7848 234.323 23.9615C234.892 24.3171 237.361 25.7395 237.991 26.024Z" fill="#4CAF4F"/>
<path d="M238.967 28.056C238.967 26.1764 237.625 25.4245 235.989 26.3694L156.82 71.9982C155.956 72.5624 155.238 73.3217 154.722 74.2148C154.207 75.1079 153.909 76.1096 153.852 77.1392V86.8624L238.967 37.7792V28.056Z" fill="#2BB79D"/>
<g opacity="0.4">
<path opacity="0.4" d="M235.989 26.3187L156.82 71.9474C155.948 72.5 155.229 73.2613 154.726 74.1623L150.956 71.9678C151.437 71.0845 152.137 70.3394 152.988 69.8037L232.158 24.1749C232.468 23.9504 232.833 23.8147 233.215 23.7825C233.596 23.7503 233.979 23.8227 234.323 23.992C234.851 24.3273 237.321 25.7294 237.951 26.024C237.624 25.9116 237.275 25.8797 236.934 25.931C236.592 25.9823 236.268 26.1153 235.989 26.3187Z" fill="white"/>
</g>
<path opacity="0.15" d="M150.041 84.6069V74.9447C150.083 73.8899 150.398 72.8642 150.956 71.9678L154.736 74.1522C154.19 75.0445 153.886 76.0633 153.852 77.1088V86.8218L150.041 84.6069Z" fill="#103E13"/>
<path d="M221.05 39.0899C220.515 39.5131 220.085 40.0543 219.794 40.6712C219.503 41.2881 219.359 41.964 219.373 42.6459C219.373 44.0683 220.125 44.7998 221.05 44.2613C221.583 43.8366 222.012 43.295 222.302 42.6785C222.593 42.0619 222.738 41.3868 222.727 40.7053C222.727 39.2321 221.975 38.5514 221.05 39.0899Z" fill="#455A64"/>
<path d="M227.097 35.5846C226.563 36.0094 226.135 36.5509 225.844 37.1675C225.553 37.784 225.408 38.4591 225.42 39.1406C225.42 40.5732 226.172 41.2946 227.097 40.7662C227.633 40.3436 228.064 39.8027 228.357 39.1858C228.65 38.569 228.796 37.8928 228.784 37.2102C228.784 35.7776 228.032 35.0563 227.097 35.5846Z" fill="#455A64"/>
<path d="M233.144 32.12C232.61 32.5448 232.182 33.0863 231.891 33.7028C231.6 34.3194 231.455 34.9945 231.467 35.676C231.467 37.1086 232.219 37.8299 233.144 37.2915C233.682 36.8704 234.114 36.3298 234.407 35.7126C234.7 35.0953 234.845 34.4184 234.831 33.7354C234.831 32.2826 234.079 31.551 233.144 32.12Z" fill="#455A64"/>
<path d="M154.94 202.738L154.564 202.524C154.268 202.336 153.962 202.164 153.649 202.006L153.151 201.722L152.379 201.275L151.718 200.899L151.352 200.696C151.155 200.599 150.982 200.46 150.844 200.289C150.675 200.11 150.538 199.904 150.437 199.68C150.212 199.189 150.098 198.655 150.102 198.115V84.5967L153.893 86.8217V200.238C153.911 200.754 154.018 201.262 154.208 201.742C154.337 202.037 154.523 202.303 154.757 202.524C154.798 202.584 154.854 202.633 154.919 202.667L154.94 202.738Z" fill="#37474F"/>
<path d="M161.292 90.9467C161.296 90.8043 161.335 90.6651 161.403 90.5403L162.989 87.2484C163.005 87.2129 163.029 87.1816 163.06 87.157C163.068 87.1481 163.079 87.141 163.09 87.1361C163.101 87.1313 163.114 87.1288 163.126 87.1288C163.138 87.1288 163.15 87.1313 163.162 87.1361C163.173 87.141 163.183 87.1481 163.192 87.157C163.228 87.1992 163.246 87.2539 163.243 87.3094V88.4168C163.255 88.5316 163.255 88.6475 163.243 88.7623C163.243 88.8436 163.182 88.9452 163.131 89.0569L162.287 90.7943L163.131 91.5665C163.177 91.6175 163.215 91.6759 163.243 91.7392C163.257 91.8402 163.257 91.9429 163.243 92.044V93.0803C163.24 93.1574 163.223 93.2333 163.192 93.3038C163.162 93.3652 163.116 93.4177 163.06 93.4562C163.06 93.4562 163.06 93.4562 162.989 93.4562L161.424 92.0643C161.384 92.0312 161.353 91.9889 161.333 91.9411C161.314 91.8933 161.307 91.8414 161.312 91.79L161.292 90.9467Z" fill="#4CAF4F"/>
<path d="M167.105 82.7069C167.13 82.5947 167.167 82.4856 167.216 82.3818C167.269 82.2798 167.351 82.1951 167.45 82.1379L168.05 81.7925C168.05 81.7925 168.141 81.7925 168.172 81.7925C168.192 81.8119 168.207 81.8359 168.216 81.8624C168.225 81.889 168.227 81.9173 168.223 81.9449C168.228 81.9854 168.228 82.0263 168.223 82.0668L165.489 93.6797C165.464 93.7886 165.426 93.8943 165.377 93.9947C165.327 94.1072 165.241 94.2001 165.133 94.2589L164.564 94.5941C164.546 94.6073 164.525 94.6145 164.503 94.6145C164.481 94.6145 164.46 94.6073 164.442 94.5941C164.421 94.5728 164.405 94.5473 164.394 94.5193C164.384 94.4913 164.379 94.4614 164.381 94.4316C164.378 94.391 164.378 94.3502 164.381 94.3097L167.105 82.7069Z" fill="#4CAF4F"/>
<path d="M171.312 85.9683C171.308 86.1139 171.269 86.2565 171.2 86.3848L169.615 89.6665L169.544 89.7681C169.524 89.7808 169.501 89.7876 169.478 89.7876C169.454 89.7876 169.431 89.7808 169.412 89.7681C169.392 89.7157 169.392 89.658 169.412 89.6056V88.4981C169.399 88.3867 169.399 88.2742 169.412 88.1628C169.443 88.0576 169.483 87.9555 169.534 87.858L170.367 86.1207L169.534 85.3587C169.483 85.3088 169.442 85.2503 169.412 85.186C169.397 85.0849 169.397 84.9822 169.412 84.8812V83.7737C169.399 83.6998 169.399 83.6241 169.412 83.5502C169.442 83.4889 169.487 83.4364 169.544 83.3978C169.554 83.3904 169.567 83.3864 169.579 83.3864C169.592 83.3864 169.605 83.3904 169.615 83.3978L171.2 84.8507C171.24 84.8858 171.271 84.93 171.291 84.9794C171.31 85.0289 171.317 85.0823 171.312 85.1352V85.9683Z" fill="#4CAF4F"/>
<path d="M175.723 85.2165C175.746 85.1983 175.775 85.1885 175.804 85.1885C175.834 85.1885 175.862 85.1983 175.885 85.2165C175.931 85.2738 175.953 85.3466 175.946 85.4196V86.6287C175.946 86.7234 175.925 86.8169 175.885 86.903C175.848 86.9795 175.792 87.0458 175.723 87.0961L174.981 87.5228C174.96 87.5421 174.933 87.5528 174.905 87.5528C174.876 87.5528 174.849 87.5421 174.829 87.5228C174.802 87.4986 174.782 87.4685 174.769 87.4349C174.757 87.4013 174.753 87.3652 174.757 87.3297V86.1105C174.757 86.0144 174.781 85.9198 174.829 85.8362C174.857 85.7596 174.911 85.695 174.981 85.6533L175.723 85.2165Z" fill="#4CAF4F"/>
<path d="M178.233 83.7737C178.255 83.7564 178.282 83.7469 178.309 83.7469C178.337 83.7469 178.364 83.7564 178.386 83.7737C178.431 83.831 178.453 83.9038 178.447 83.9769V85.1859C178.446 85.2807 178.425 85.3741 178.386 85.4603C178.357 85.5369 178.303 85.6015 178.233 85.6431L177.481 86.08C177.459 86.0973 177.433 86.1068 177.405 86.1068C177.377 86.1068 177.35 86.0973 177.329 86.08C177.283 86.0227 177.261 85.9499 177.268 85.8768V84.6678C177.268 84.5731 177.289 84.4796 177.329 84.3935C177.359 84.3155 177.412 84.2484 177.481 84.2004L178.233 83.7737Z" fill="#4CAF4F"/>
<path d="M180.733 82.331C180.756 82.311 180.785 82.2999 180.815 82.2999C180.845 82.2999 180.874 82.311 180.896 82.331C180.919 82.3573 180.936 82.388 180.946 82.4212C180.957 82.4544 180.96 82.4894 180.957 82.524V83.7432C180.956 83.8379 180.935 83.9314 180.896 84.0176C180.861 84.0934 180.805 84.1571 180.733 84.2004L179.991 84.6373C179.97 84.6546 179.943 84.6641 179.915 84.6641C179.887 84.6641 179.861 84.6546 179.839 84.6373C179.812 84.6112 179.792 84.5792 179.78 84.544C179.767 84.5088 179.763 84.4712 179.768 84.4341V83.2251C179.767 83.129 179.792 83.0344 179.839 82.9507C179.87 82.8728 179.923 82.8057 179.991 82.7577L180.733 82.331Z" fill="#4CAF4F"/>
<path d="M161.962 99.8062L213.255 70.2202C213.682 69.9763 214.037 70.1491 214.037 70.6164C214.018 70.8793 213.937 71.1338 213.801 71.3596C213.665 71.5855 213.478 71.7763 213.255 71.9169L161.993 101.503C161.556 101.757 161.21 101.584 161.21 101.107C161.226 100.846 161.302 100.593 161.432 100.368C161.563 100.142 161.744 99.9496 161.962 99.8062Z" fill="#4CAF4F"/>
<path d="M173.741 113.4L225.003 83.8143C225.43 83.5705 225.786 83.7432 225.786 84.2105C225.766 84.4747 225.685 84.7307 225.549 84.9582C225.413 85.1857 225.226 85.3784 225.003 85.5212L173.741 115.107C173.304 115.351 172.959 115.178 172.959 114.711C172.976 114.446 173.056 114.189 173.192 113.961C173.328 113.734 173.516 113.541 173.741 113.4Z" fill="#C8E6C9"/>
<path d="M173.741 120.208L205.856 101.676C206.293 101.422 206.639 101.594 206.639 102.072C206.62 102.335 206.539 102.59 206.403 102.816C206.267 103.042 206.08 103.232 205.856 103.372L173.741 121.904C173.304 122.148 172.959 121.975 172.959 121.508C172.976 121.245 173.056 120.989 173.192 120.763C173.328 120.537 173.516 120.346 173.741 120.208Z" fill="#C8E6C9"/>
<path d="M173.741 127.005L205.856 108.473C206.293 108.219 206.639 108.402 206.639 108.869C206.62 109.132 206.539 109.387 206.403 109.613C206.267 109.839 206.08 110.03 205.856 110.169L173.741 128.701C173.304 128.955 172.959 128.773 172.959 128.305C172.976 128.042 173.056 127.786 173.192 127.56C173.328 127.334 173.516 127.143 173.741 127.005Z" fill="#C8E6C9"/>
<path d="M216.304 68.4625L230.928 59.989C231.365 59.7451 231.711 59.9179 231.711 60.3852C231.693 60.65 231.613 60.9069 231.477 61.1348C231.341 61.3626 231.153 61.5549 230.928 61.6959L216.304 70.1693C215.867 70.4132 215.521 70.2405 215.521 69.7731C215.538 69.5083 215.618 69.2514 215.755 69.0236C215.891 68.7957 216.079 68.6034 216.304 68.4625Z" fill="#4CAF4F"/>
<path d="M174.635 167.36L213.255 145.008C213.682 144.754 214.037 144.937 214.037 145.404C214.016 145.667 213.934 145.921 213.799 146.146C213.663 146.372 213.477 146.563 213.255 146.705L174.635 169.057C174.198 169.301 173.853 169.128 173.853 168.661C173.873 168.398 173.955 168.144 174.091 167.918C174.226 167.693 174.413 167.502 174.635 167.36Z" fill="#4CAF4F"/>
<path d="M216.304 143.24L230.888 134.736C231.325 134.482 231.67 134.665 231.67 135.133C231.653 135.396 231.573 135.652 231.437 135.878C231.3 136.104 231.112 136.294 230.888 136.433L216.304 144.896C215.867 145.15 215.521 144.968 215.521 144.5C215.546 144.244 215.63 143.998 215.765 143.779C215.901 143.561 216.085 143.376 216.304 143.24Z" fill="#4CAF4F"/>
<path d="M181.191 143.058L230.888 114.406C231.325 114.162 231.67 114.335 231.67 114.802C231.653 115.067 231.573 115.324 231.437 115.552C231.301 115.78 231.112 115.972 230.888 116.113L181.191 144.764C180.764 145.008 180.408 144.836 180.408 144.358C180.429 144.096 180.511 143.842 180.647 143.616C180.783 143.39 180.969 143.199 181.191 143.058Z" fill="#4CAF4F"/>
<path d="M168.721 157.292L230.888 121.203C231.325 120.959 231.67 121.132 231.67 121.599C231.653 121.864 231.573 122.121 231.437 122.349C231.301 122.577 231.112 122.769 230.888 122.91L168.721 158.988C168.294 159.242 167.938 159.06 167.938 158.592C167.958 158.329 168.039 158.075 168.175 157.849C168.311 157.623 168.498 157.432 168.721 157.292Z" fill="#4CAF4F"/>
<path d="M171.648 162.28L213.255 138.201C213.682 137.957 214.037 138.13 214.037 138.597C214.018 138.861 213.937 139.117 213.801 139.345C213.665 139.572 213.478 139.765 213.255 139.908L171.678 163.987C171.241 164.231 170.896 164.058 170.896 163.591C170.909 163.329 170.985 163.074 171.115 162.846C171.246 162.619 171.428 162.425 171.648 162.28Z" fill="#E8F5E9"/>
<path d="M168.721 150.241L176.943 145.496C177.369 145.242 177.725 145.425 177.725 145.892C177.705 146.155 177.624 146.41 177.488 146.635C177.352 146.861 177.166 147.052 176.943 147.193L168.721 151.937C168.294 152.191 167.938 152.008 167.938 151.541C167.955 151.278 168.035 151.022 168.172 150.796C168.308 150.57 168.496 150.379 168.721 150.241Z" fill="#4CAF4F"/>
<path d="M161.962 106.624L197.919 85.8565C198.356 85.6025 198.712 85.7854 198.712 86.2528C198.692 86.5169 198.61 86.7727 198.472 86.9988C198.335 87.225 198.145 87.4151 197.919 87.5532L161.962 108.32C161.525 108.574 161.18 108.392 161.18 107.924C161.197 107.661 161.277 107.405 161.413 107.179C161.549 106.953 161.738 106.762 161.962 106.624Z" fill="#4CAF4F"/>
<path opacity="0.6" d="M161.962 106.624L197.919 85.8565C198.356 85.6025 198.712 85.7854 198.712 86.2528C198.692 86.5169 198.61 86.7727 198.472 86.9988C198.335 87.225 198.145 87.4151 197.919 87.5532L161.962 108.32C161.525 108.574 161.18 108.392 161.18 107.924C161.197 107.661 161.277 107.405 161.413 107.179C161.549 106.953 161.738 106.762 161.962 106.624Z" fill="white"/>
<path d="M161.962 113.4L169.229 109.204C169.656 108.95 170.011 109.123 170.011 109.6C169.99 109.863 169.908 110.117 169.773 110.342C169.637 110.568 169.451 110.759 169.229 110.901L161.962 115.097C161.525 115.351 161.18 115.168 161.18 114.701C161.197 114.437 161.277 114.182 161.413 113.956C161.549 113.729 161.738 113.539 161.962 113.4Z" fill="#4CAF4F"/>
<path opacity="0.6" d="M161.962 113.4L169.229 109.204C169.656 108.95 170.011 109.123 170.011 109.6C169.99 109.863 169.908 110.117 169.773 110.342C169.637 110.568 169.451 110.759 169.229 110.901L161.962 115.097C161.525 115.351 161.18 115.168 161.18 114.701C161.197 114.437 161.277 114.182 161.413 113.956C161.549 113.729 161.738 113.539 161.962 113.4Z" fill="white"/>
<path d="M161.962 120.208L169.229 116.012C169.656 115.758 170.011 115.94 170.011 116.408C169.99 116.67 169.908 116.924 169.773 117.15C169.637 117.375 169.451 117.567 169.229 117.708L161.962 121.904C161.525 122.158 161.18 121.975 161.18 121.508C161.197 121.245 161.277 120.989 161.413 120.763C161.549 120.537 161.738 120.346 161.962 120.208Z" fill="#4CAF4F"/>
<path opacity="0.6" d="M161.962 120.208L169.229 116.012C169.656 115.758 170.011 115.94 170.011 116.408C169.99 116.67 169.908 116.924 169.773 117.15C169.637 117.375 169.451 117.567 169.229 117.708L161.962 121.904C161.525 122.158 161.18 121.975 161.18 121.508C161.197 121.245 161.277 120.989 161.413 120.763C161.549 120.537 161.738 120.346 161.962 120.208Z" fill="white"/>
<path d="M161.962 127.005L169.229 122.809C169.656 122.555 170.011 122.737 170.011 123.205C169.99 123.467 169.908 123.721 169.773 123.947C169.637 124.172 169.451 124.364 169.229 124.505L161.962 128.701C161.525 128.955 161.18 128.772 161.18 128.305C161.199 128.042 161.279 127.787 161.415 127.561C161.551 127.335 161.739 127.145 161.962 127.005Z" fill="#4CAF4F"/>
<path opacity="0.6" d="M161.962 127.005L169.229 122.809C169.656 122.555 170.011 122.737 170.011 123.205C169.99 123.467 169.908 123.721 169.773 123.947C169.637 124.172 169.451 124.364 169.229 124.505L161.962 128.701C161.525 128.955 161.18 128.772 161.18 128.305C161.199 128.042 161.279 127.787 161.415 127.561C161.551 127.335 161.739 127.145 161.962 127.005Z" fill="white"/>
<path d="M161.962 133.802L169.229 129.606C169.656 129.352 170.011 129.535 170.011 130.002C169.99 130.264 169.908 130.518 169.773 130.744C169.637 130.969 169.451 131.161 169.229 131.302L161.962 135.499C161.525 135.753 161.18 135.57 161.18 135.102C161.199 134.839 161.279 134.584 161.415 134.358C161.551 134.132 161.739 133.942 161.962 133.802Z" fill="#4CAF4F"/>
<path opacity="0.6" d="M161.962 133.802L169.229 129.606C169.656 129.352 170.011 129.535 170.011 130.002C169.99 130.264 169.908 130.518 169.773 130.744C169.637 130.969 169.451 131.161 169.229 131.302L161.962 135.499C161.525 135.753 161.18 135.57 161.18 135.102C161.199 134.839 161.279 134.584 161.415 134.358C161.551 134.132 161.739 133.942 161.962 133.802Z" fill="white"/>
<path d="M173.741 174.828L205.856 156.296C206.293 156.042 206.639 156.225 206.639 156.692C206.62 156.955 206.539 157.21 206.403 157.436C206.267 157.662 206.08 157.853 205.856 157.993L173.741 176.525C173.304 176.779 172.959 176.596 172.959 176.128C172.976 175.865 173.056 175.61 173.192 175.383C173.328 175.157 173.516 174.967 173.741 174.828Z" fill="#C8E6C9"/>
<path d="M173.741 181.625L205.856 163.093C206.293 162.839 206.639 163.022 206.639 163.489C206.621 163.753 206.541 164.008 206.405 164.235C206.269 164.461 206.081 164.651 205.856 164.79L173.741 183.322C173.304 183.576 172.959 183.393 172.959 182.926C172.978 182.663 173.058 182.408 173.194 182.182C173.33 181.956 173.518 181.765 173.741 181.625Z" fill="#C8E6C9"/>
<path d="M210.531 153.594L230.715 141.981C231.152 141.737 231.497 141.909 231.497 142.377C231.48 142.642 231.4 142.898 231.264 143.126C231.128 143.354 230.94 143.546 230.715 143.687L210.531 155.29C210.104 155.544 209.749 155.361 209.749 154.894C209.768 154.631 209.849 154.377 209.985 154.151C210.121 153.925 210.308 153.734 210.531 153.594Z" fill="#C8E6C9"/>
<path d="M210.531 160.391L230.715 148.778C231.152 148.534 231.497 148.707 231.497 149.184C231.478 149.447 231.398 149.702 231.262 149.928C231.126 150.154 230.938 150.345 230.715 150.485L210.531 162.087C210.104 162.341 209.749 162.158 209.749 161.691C209.77 161.429 209.852 161.175 209.987 160.949C210.123 160.723 210.309 160.532 210.531 160.391Z" fill="#C8E6C9"/>
<path d="M161.962 181.625L169.229 177.429C169.656 177.175 170.011 177.358 170.011 177.825C169.992 178.088 169.911 178.343 169.775 178.568C169.639 178.794 169.452 178.985 169.229 179.126L161.962 183.322C161.525 183.576 161.18 183.403 161.18 182.926C161.199 182.663 161.279 182.408 161.415 182.182C161.551 181.956 161.739 181.765 161.962 181.625Z" fill="#4CAF4F"/>
<path opacity="0.6" d="M161.962 181.625L169.229 177.429C169.656 177.175 170.011 177.358 170.011 177.825C169.992 178.088 169.911 178.343 169.775 178.568C169.639 178.794 169.452 178.985 169.229 179.126L161.962 183.322C161.525 183.576 161.18 183.403 161.18 182.926C161.199 182.663 161.279 182.408 161.415 182.182C161.551 181.956 161.739 181.765 161.962 181.625Z" fill="white"/>
<path d="M161.962 188.422L169.229 184.226C169.656 183.982 170.011 184.155 170.011 184.622C169.992 184.885 169.911 185.14 169.775 185.365C169.639 185.591 169.452 185.782 169.229 185.923L161.962 190.129C161.525 190.373 161.18 190.2 161.18 189.733C161.197 189.468 161.277 189.211 161.413 188.983C161.549 188.755 161.737 188.563 161.962 188.422Z" fill="#4CAF4F"/>
<path opacity="0.6" d="M161.962 188.422L169.229 184.226C169.656 183.982 170.011 184.155 170.011 184.622C169.992 184.885 169.911 185.14 169.775 185.365C169.639 185.591 169.452 185.782 169.229 185.923L161.962 190.129C161.525 190.373 161.18 190.2 161.18 189.733C161.197 189.468 161.277 189.211 161.413 188.983C161.549 188.755 161.737 188.563 161.962 188.422Z" fill="white"/>
<path d="M200.968 84.0988L210.277 78.7445C210.704 78.4905 211.06 78.6733 211.06 79.1407C211.04 79.4035 210.959 79.6581 210.823 79.8839C210.687 80.1098 210.5 80.3006 210.277 80.4412L200.968 85.7955C200.531 86.0495 200.175 85.8768 200.175 85.3993C200.196 85.1356 200.278 84.8804 200.416 84.6545C200.554 84.4286 200.743 84.2382 200.968 84.0988Z" fill="#4CAF4F"/>
<path opacity="0.6" d="M200.968 84.0988L210.277 78.7445C210.704 78.4905 211.06 78.6733 211.06 79.1407C211.04 79.4035 210.959 79.6581 210.823 79.8839C210.687 80.1098 210.5 80.3006 210.277 80.4412L200.968 85.7955C200.531 86.0495 200.175 85.8768 200.175 85.3993C200.196 85.1356 200.278 84.8804 200.416 84.6545C200.554 84.4286 200.743 84.2382 200.968 84.0988Z" fill="white"/>
<path d="M173.182 134.066L218.54 107.924C218.966 107.67 219.322 107.853 219.322 108.32C219.302 108.583 219.221 108.838 219.085 109.064C218.949 109.289 218.763 109.48 218.54 109.621L173.182 135.753C172.755 136.007 172.4 135.824 172.4 135.356C172.421 135.095 172.503 134.843 172.639 134.619C172.774 134.395 172.961 134.206 173.182 134.066Z" fill="#E8F5E9"/>
<path d="M161.962 147.508L230.888 107.619C231.325 107.365 231.67 107.548 231.67 108.015C231.653 108.279 231.573 108.534 231.437 108.761C231.3 108.987 231.112 109.177 230.888 109.316L161.962 149.204C161.525 149.458 161.18 149.275 161.18 148.808C161.197 148.545 161.277 148.289 161.413 148.063C161.549 147.837 161.738 147.646 161.962 147.508Z" fill="#E8F5E9"/>
<path d="M221.578 106.166L230.887 100.812C231.324 100.558 231.67 100.741 231.67 101.208C231.653 101.472 231.573 101.727 231.437 101.953C231.3 102.18 231.112 102.37 230.887 102.509L221.578 107.873C221.141 108.117 220.796 107.944 220.796 107.467C220.815 107.204 220.895 106.949 221.031 106.723C221.167 106.497 221.355 106.306 221.578 106.166Z" fill="#E8F5E9"/>
<path d="M173.741 106.613L209.698 85.8463C210.135 85.5923 210.49 85.7751 210.49 86.2425C210.47 86.5062 210.387 86.7614 210.249 86.9873C210.111 87.2132 209.923 87.4036 209.698 87.543L173.741 108.32C173.304 108.574 172.948 108.391 172.948 107.924C172.966 107.658 173.047 107.4 173.185 107.172C173.323 106.944 173.514 106.753 173.741 106.613Z" fill="#4CAF4F"/>
<path opacity="0.6" d="M173.741 106.613L209.698 85.8463C210.135 85.5923 210.49 85.7751 210.49 86.2425C210.47 86.5062 210.387 86.7614 210.249 86.9873C210.111 87.2132 209.923 87.4036 209.698 87.543L173.741 108.32C173.304 108.574 172.948 108.391 172.948 107.924C172.966 107.658 173.047 107.4 173.185 107.172C173.323 106.944 173.514 106.753 173.741 106.613Z" fill="white"/>
<path d="M212.747 84.0886L222.056 78.7343C222.483 78.4803 222.838 78.653 222.838 79.1305C222.817 79.3929 222.735 79.6469 222.6 79.8725C222.464 80.0981 222.278 80.2892 222.056 80.431L212.747 85.7853C212.31 86.0393 211.954 85.8565 211.954 85.3891C211.975 85.1254 212.057 84.8702 212.195 84.6443C212.333 84.4184 212.522 84.228 212.747 84.0886Z" fill="#4CAF4F"/>
<path opacity="0.6" d="M212.747 84.0886L222.056 78.7343C222.483 78.4803 222.838 78.653 222.838 79.1305C222.817 79.3929 222.735 79.6469 222.6 79.8725C222.464 80.0981 222.278 80.2892 222.056 80.431L212.747 85.7853C212.31 86.0393 211.954 85.8565 211.954 85.3891C211.975 85.1254 212.057 84.8702 212.195 84.6443C212.333 84.4184 212.522 84.228 212.747 84.0886Z" fill="white"/>
<path opacity="0.1" d="M49.6817 227.67L20.575 244.465C20.2336 244.687 19.9497 244.988 19.7465 245.341C19.5434 245.694 19.4268 246.09 19.4062 246.497V281.58C19.4062 282.321 19.9347 282.596 20.575 282.25L49.6817 265.486C50.022 265.263 50.3051 264.962 50.508 264.609C50.711 264.256 50.8283 263.861 50.8505 263.454V228.341C50.8505 227.599 50.322 227.305 49.6817 227.67Z" fill="#103E13"/>
<path opacity="0.1" d="M41.4294 158.013L19.9449 170.388C19.7885 170.489 19.6582 170.625 19.5646 170.786C19.471 170.946 19.4167 171.127 19.4062 171.313V183.302C19.4062 183.647 19.6502 183.779 19.9449 183.606L41.4294 171.231C41.5856 171.133 41.7159 170.999 41.8096 170.84C41.9033 170.68 41.9576 170.501 41.968 170.317V158.318C41.968 157.983 41.7241 157.841 41.4294 158.013Z" fill="#103E13"/>
<path opacity="0.1" d="M41.4294 182.936L19.9449 195.311C19.7885 195.411 19.6582 195.548 19.5646 195.708C19.471 195.869 19.4167 196.05 19.4062 196.235V208.224C19.4062 208.559 19.6502 208.702 19.9449 208.529L41.4294 196.154C41.5864 196.054 41.7171 195.918 41.8108 195.757C41.9045 195.596 41.9584 195.415 41.968 195.229V183.241C41.968 182.905 41.7241 182.763 41.4294 182.936Z" fill="#103E13"/>
<path opacity="0.1" d="M41.4294 207.889L19.9449 220.233C19.7879 220.333 19.6572 220.47 19.5635 220.63C19.4698 220.791 19.4159 220.972 19.4062 221.158V233.147C19.4062 233.482 19.6502 233.624 19.9449 233.452L41.4294 221.097C41.5858 220.996 41.7161 220.86 41.8097 220.699C41.9033 220.539 41.9576 220.358 41.968 220.172V208.183C41.968 207.818 41.7241 207.686 41.4294 207.889Z" fill="#103E13"/>
<path d="M31.9676 226.228C31.9676 226.319 31.9676 226.451 31.9676 226.614V227.63C31.9676 227.803 31.9676 227.924 31.9676 228.016C31.9765 228.16 31.9969 228.302 32.0286 228.443C32.0584 228.553 32.1103 228.657 32.1811 228.747C32.2521 228.818 32.3456 228.861 32.4453 228.869C32.5834 228.86 32.7165 228.814 32.8315 228.737C32.9761 228.658 33.1066 228.555 33.2177 228.432C33.3121 228.325 33.3971 228.209 33.4718 228.087C33.5303 227.973 33.5779 227.854 33.614 227.731C33.614 227.61 33.675 227.508 33.6953 227.406C33.7114 227.313 33.7352 227.221 33.7665 227.132C33.8012 227.061 33.8584 227.004 33.9291 226.969L34.8234 226.451C34.8394 226.439 34.8591 226.432 34.8793 226.432C34.8996 226.432 34.9192 226.439 34.9352 226.451C34.9352 226.451 34.9352 226.522 34.9352 226.583C34.931 226.962 34.8728 227.339 34.7624 227.701C34.654 228.079 34.504 228.443 34.3153 228.788C34.1246 229.125 33.8962 229.438 33.6344 229.723C33.3955 230 33.11 230.234 32.7908 230.414C32.5299 230.584 32.2282 230.683 31.9168 230.698C31.6759 230.701 31.4418 230.618 31.2562 230.465C31.0552 230.284 30.9075 230.052 30.8294 229.794C30.7248 229.465 30.6666 229.123 30.6566 228.778C30.6566 228.493 30.6566 228.189 30.6566 227.853C30.6566 227.518 30.6566 227.203 30.6566 226.898C30.6699 226.494 30.7279 226.091 30.8294 225.699C30.9553 225.299 31.1257 224.914 31.3375 224.551C31.5143 224.186 31.7363 223.845 31.9981 223.535C32.2508 223.242 32.5494 222.991 32.8823 222.794C33.1379 222.637 33.4269 222.543 33.7258 222.519C33.9646 222.496 34.2042 222.553 34.4067 222.682C34.6097 222.818 34.7658 223.013 34.8539 223.241C34.9745 223.53 35.0333 223.842 35.0267 224.155C35.0411 224.219 35.0411 224.285 35.0267 224.348C35.0005 224.4 34.9622 224.446 34.9149 224.48L34.0206 224.998C33.9392 224.998 33.8884 224.998 33.8579 224.998C33.8223 224.939 33.7981 224.874 33.7868 224.805C33.7868 224.734 33.7868 224.653 33.7055 224.572C33.6785 224.497 33.6287 224.433 33.5632 224.389C33.4855 224.346 33.3978 224.325 33.3091 224.328C33.1724 224.343 33.0407 224.389 32.923 224.46C32.777 224.546 32.6465 224.656 32.5368 224.785C32.4334 224.917 32.3447 225.06 32.2725 225.212C32.2096 225.367 32.1586 225.526 32.1201 225.689C32.0572 225.865 32.0063 226.045 31.9676 226.228Z" fill="#F5F7FA"/>
<path d="M38.2686 224.826V226.563C38.2828 226.64 38.2828 226.719 38.2686 226.797C38.2414 226.863 38.1955 226.919 38.1365 226.959L37.2727 227.457C37.2543 227.473 37.2308 227.482 37.2066 227.482C37.1824 227.482 37.159 227.473 37.1405 227.457C37.1291 227.43 37.1232 227.4 37.1232 227.371C37.1232 227.341 37.1291 227.312 37.1405 227.284V225.547L36.1243 226.157C36.1157 226.166 36.1055 226.173 36.0941 226.178C36.0828 226.182 36.0705 226.185 36.0582 226.185C36.0458 226.185 36.0336 226.182 36.0223 226.178C36.0109 226.173 36.0007 226.166 35.9921 226.157C35.9727 226.104 35.9727 226.047 35.9921 225.994V224.927C35.9768 224.85 35.9768 224.771 35.9921 224.694C36.0194 224.628 36.0653 224.571 36.1243 224.531L37.1405 223.921V222.113C37.1224 222.036 37.1224 221.956 37.1405 221.879C37.1679 221.816 37.214 221.763 37.2727 221.727L38.1365 221.219C38.1562 221.206 38.1792 221.199 38.2026 221.199C38.226 221.199 38.2489 221.206 38.2686 221.219C38.288 221.275 38.288 221.336 38.2686 221.392V223.129L39.2849 222.519C39.3046 222.507 39.3276 222.5 39.351 222.5C39.3744 222.5 39.3974 222.507 39.4171 222.519C39.437 222.543 39.4519 222.571 39.4606 222.6C39.4694 222.63 39.4718 222.661 39.4679 222.692V223.759C39.4706 223.84 39.4531 223.92 39.4171 223.993C39.3869 224.057 39.3415 224.112 39.2849 224.155L38.2686 224.826Z" fill="#F5F7FA"/>
<path d="M42.8216 222.194V223.942C42.8193 224.023 42.7984 224.103 42.7606 224.175C42.7337 224.236 42.6917 224.288 42.6387 224.328L41.7647 224.826C41.757 224.834 41.7477 224.841 41.7372 224.846C41.7266 224.851 41.7152 224.853 41.7037 224.853C41.6922 224.853 41.6808 224.851 41.6702 224.846C41.6597 224.841 41.6504 224.834 41.6427 224.826C41.6212 224.805 41.6045 224.779 41.594 224.751C41.5834 224.723 41.5793 224.693 41.5817 224.663V222.916L40.5654 223.535C40.547 223.551 40.5236 223.56 40.4994 223.56C40.4752 223.56 40.4517 223.551 40.4333 223.535C40.4115 223.512 40.3948 223.485 40.3843 223.456C40.3738 223.426 40.3697 223.394 40.3723 223.363V222.296C40.3747 222.214 40.3956 222.134 40.4333 222.062C40.4573 221.997 40.5043 221.943 40.5654 221.91L41.5817 221.29V219.553C41.5812 219.471 41.6023 219.39 41.6427 219.319C41.6667 219.254 41.7091 219.198 41.7647 219.156L42.6387 218.658C42.6463 218.65 42.6557 218.643 42.6662 218.638C42.6767 218.633 42.6881 218.631 42.6997 218.631C42.7112 218.631 42.7226 218.633 42.7331 218.638C42.7436 218.643 42.753 218.65 42.7606 218.658C42.7822 218.679 42.7988 218.705 42.8094 218.733C42.8199 218.761 42.8241 218.791 42.8216 218.821V220.569L43.8379 219.959C43.8465 219.95 43.8567 219.943 43.8681 219.938C43.8794 219.933 43.8916 219.931 43.904 219.931C43.9163 219.931 43.9285 219.933 43.9399 219.938C43.9512 219.943 43.9615 219.95 43.97 219.959C43.9902 220.015 43.9902 220.076 43.97 220.132V221.148C43.9841 221.222 43.9841 221.297 43.97 221.371C43.9428 221.437 43.8969 221.494 43.8379 221.534L42.8216 222.194Z" fill="#F5F7FA"/>
<path d="M282.048 68.2694L264.252 78.5514C264.068 78.6743 263.916 78.8384 263.806 79.0306C263.697 79.2229 263.634 79.438 263.622 79.6588V101.401C263.633 101.621 263.697 101.834 263.809 102.023C263.92 102.213 264.076 102.372 264.262 102.488L266.783 103.931C266.982 104.029 267.201 104.08 267.423 104.08C267.645 104.08 267.864 104.029 268.063 103.931L285.859 93.639C286.042 93.5183 286.195 93.3561 286.305 93.1655C286.414 92.9749 286.477 92.7612 286.489 92.5417V70.7993C286.477 70.5787 286.413 70.3641 286.301 70.1733C286.19 69.9825 286.035 69.821 285.849 69.702L283.379 68.2592C283.173 68.1523 282.944 68.0973 282.712 68.099C282.48 68.1008 282.252 68.1593 282.048 68.2694Z" fill="#333333"/>
<path d="M268.063 103.921C267.864 104.017 267.645 104.066 267.423 104.066C267.202 104.066 266.983 104.017 266.783 103.921L264.262 102.478C264.076 102.362 263.92 102.203 263.809 102.013C263.697 101.824 263.633 101.611 263.622 101.391V79.6487C263.632 79.4179 263.702 79.1937 263.825 78.9984L267.616 81.1727C267.494 81.3759 267.423 81.5994 267.423 81.2539V102.996C267.423 103.921 267.687 104.134 268.063 103.921Z" fill="#333333"/>
<path opacity="0.4" d="M286.479 70.7281C286.428 70.403 286.174 70.2912 285.859 70.4741L268.063 80.7662C267.878 80.8826 267.724 81.0432 267.616 81.2336L263.815 79.0593C263.926 78.8741 264.08 78.7175 264.262 78.6021L282.058 68.31C282.255 68.2101 282.472 68.158 282.693 68.158C282.914 68.158 283.131 68.2101 283.328 68.31L285.848 69.7426C286.02 69.8502 286.165 69.9944 286.274 70.1648C286.383 70.3352 286.453 70.5275 286.479 70.7281Z" fill="white"/>
<path d="M261.884 95.7828C261.478 95.539 258.439 93.8321 258.348 93.7508C258.272 93.7059 258.208 93.6449 258.16 93.5721C258.111 93.4993 258.079 93.4167 258.067 93.3301C258.054 93.2435 258.061 93.1552 258.087 93.0715C258.112 92.9879 258.156 92.911 258.215 92.8466L263.622 86.6489L267.423 88.8333L261.773 94.8684C261.712 94.9325 261.667 95.0089 261.639 95.0925C261.612 95.176 261.603 95.2645 261.614 95.3518C261.625 95.439 261.655 95.5229 261.701 95.5974C261.748 95.6719 261.81 95.7352 261.884 95.7828Z" fill="#37474F"/>
<path opacity="0.4" d="M261.884 95.7828C261.478 95.539 258.439 93.8321 258.348 93.7508C258.272 93.7059 258.208 93.6449 258.16 93.5721C258.111 93.4993 258.079 93.4167 258.067 93.3301C258.054 93.2435 258.061 93.1552 258.087 93.0715C258.112 92.9879 258.156 92.911 258.215 92.8466L263.622 86.6489L267.423 88.8333L261.773 94.8684C261.712 94.9325 261.667 95.0089 261.639 95.0925C261.612 95.176 261.603 95.2645 261.614 95.3518C261.625 95.439 261.655 95.5229 261.701 95.5974C261.748 95.6719 261.81 95.7352 261.884 95.7828Z" fill="white"/>
<path d="M285.859 70.4233L268.063 80.7154C267.877 80.8344 267.722 80.996 267.611 81.1868C267.499 81.3776 267.435 81.5921 267.423 81.8127V88.8536L261.772 94.8887C261.679 94.9625 261.61 95.0641 261.577 95.179C261.544 95.2938 261.548 95.4162 261.589 95.5286C261.629 95.641 261.704 95.7379 261.803 95.8054C261.901 95.8729 262.019 95.9076 262.138 95.9047L267.423 95.5186V103.596C267.423 104.002 267.708 104.165 268.063 103.962L285.859 93.6695C286.042 93.5487 286.195 93.3865 286.305 93.1959C286.414 93.0053 286.477 92.7916 286.489 92.5722V70.8297C286.489 70.3826 286.204 70.2201 285.859 70.4233Z" fill="#37474F"/>
<path d="M283.435 87.072C283.622 86.5607 283.724 86.0348 283.717 85.5026C283.693 83.6513 282.034 82.1719 280.012 82.1982C278.774 82.2143 277.686 82.7913 277.035 83.6614C276.361 82.8086 275.259 82.26 274.021 82.2761C271.998 82.3024 270.379 83.8245 270.403 85.6758C270.446 89.0278 274.813 92.0189 277.152 92.6974C277.726 92.5148 278.419 92.1879 279.137 91.7486M276.755 87.7266L278.419 87.705L279.782 90.1255L281.066 86.4514L282.429 88.872L284.093 88.8503" stroke="#26272B" stroke-width="1.5" stroke-linecap="round" stroke-linejoin="round"/>
<path d="M365.593 349.394C366.314 350.816 366.637 352.406 366.528 353.997C366.456 355.389 365.623 357.197 365.999 360.337C366.375 363.476 367.097 364.472 367.432 366.687C367.629 367.703 367.622 368.748 367.411 369.762C367.199 370.775 366.789 371.736 366.202 372.59C364.901 374.703 362.036 376.379 356.365 376.176C351.791 376.014 349.942 373.667 349.84 370.974L365.593 349.394Z" fill="#263238"/>
<path d="M364.292 342.912C364.432 343.496 364.524 344.091 364.566 344.69C364.739 345.757 365.054 346.722 365.308 347.809C365.379 348.084 365.44 348.358 365.501 348.632C365.938 350.735 365.501 352.91 365.501 355.053C365.677 357.586 366.123 360.093 366.832 362.531C367.849 366.981 368.021 369.958 364.129 373.037C362.096 374.662 359.83 374.713 357.228 374.784C355.228 374.854 353.246 374.376 351.496 373.402C349.83 372.173 349.85 371.137 349.84 370.741C349.687 366.016 351.395 360.52 351.74 355.805C351.869 354.536 351.896 353.259 351.822 351.985C351.659 350.42 351.12 348.866 350.948 347.291C350.826 346.704 350.901 346.094 351.161 345.554C351.424 345.255 351.748 345.016 352.111 344.853C352.473 344.69 352.867 344.607 353.265 344.609C355.297 344.335 357.411 344.131 359.495 343.979C359.985 343.886 360.492 343.988 360.907 344.263C361.314 344.629 361.324 345.279 361.436 345.777C361.548 346.275 361.934 346.915 362.452 346.793C362.624 346.738 362.775 346.633 362.887 346.492C362.999 346.351 363.067 346.18 363.082 346.001C363.133 345.655 363.286 342.953 363.275 342.557C363.316 342.577 364.048 342.465 364.292 342.912Z" fill="#37474F"/>
<path d="M295.468 358.589C295.133 359.424 295.133 360.355 295.468 361.19C295.803 361.962 299.676 364.36 305.031 364.238C308.995 364.111 312.853 362.933 316.211 360.824C318.294 359.554 320.428 359.392 323.081 359.341C325.733 359.29 328.843 358.325 329.748 357.136C330.088 355.972 330.088 354.734 329.748 353.57L295.468 358.589Z" fill="#263238"/>
<path d="M314.859 342.77C314.654 343.152 314.471 343.545 314.31 343.948C313.654 345.4 312.64 346.662 311.363 347.616C309.515 348.894 307.531 349.964 305.448 350.806C304.127 351.396 302.745 351.558 301.383 352.026C299.874 352.509 298.419 353.149 297.043 353.936C294.889 355.257 294.482 358.802 296.81 360.306C298.842 361.596 304.198 363.131 309.95 361.749C313.091 360.997 316.658 357.817 320.743 357.685C323.335 357.593 328.264 357.065 330.012 355.165C330.652 352.33 329.951 351.528 329.372 349.069C329.062 347.709 328.898 346.319 328.884 344.924C328.884 344.192 329.372 342.089 327.868 341.876L327.715 343.451C327.715 343.451 327.421 343.979 325.815 344.263C325.296 344.355 324.89 345.036 324.616 345.655C324.341 346.275 324.168 346.753 323.599 346.742C323.422 346.718 323.254 346.646 323.113 346.536C322.972 346.425 322.863 346.279 322.796 346.112C322.674 345.781 322.575 345.442 322.502 345.096C322.296 344.543 321.972 344.041 321.553 343.625C321.133 343.209 320.628 342.889 320.073 342.689C319.151 342.377 318.196 342.176 317.227 342.089C316.495 341.977 315.886 341.662 315.194 342.292C315.062 342.436 314.95 342.597 314.859 342.77Z" fill="#37474F"/>
<path d="M356.558 221.926C357.574 237.441 358.113 246.473 360.887 288.81C362.929 296.056 364.226 303.491 364.759 310.999C365.308 320.367 366.639 348.592 366.639 348.592C366.639 348.592 359.088 354.789 350.379 351.924C350.379 351.924 342.472 310.43 339.707 297.487C337.065 285.061 335.032 271.477 335.032 271.477L333.071 288.81C333.071 288.81 333.417 296.521 333.173 308.033C333.051 314.19 330.124 347.515 330.124 347.515C330.124 347.515 319.524 352.33 312.369 346.143C312.369 346.143 311.851 292.102 311.739 286.534C311.617 280.174 312.755 216.216 312.755 216.216L356.558 221.926Z" fill="#455A64"/>
<path d="M334.992 271.487L329.575 243.11C329.575 243.11 321.201 242.378 316.577 237.705C316.577 237.705 317.4 242.287 327.929 245.03L333.163 271.162L333.071 288.81L334.992 271.487Z" fill="#37474F"/>
<path d="M366.395 343.501C363.176 346.288 359.036 347.78 354.779 347.687C354.779 347.687 361.995 346.61 366.324 341.855L366.395 343.501Z" fill="#37474F"/>
<path d="M330.459 343.583C330.459 343.583 323.071 346.163 316.841 344.192C316.841 344.192 321.648 347.423 330.347 344.771L330.459 343.583Z" fill="#37474F"/>
<path d="M252.53 164.197C252.477 163.954 252.373 163.726 252.225 163.526C251.966 163.058 251.836 162.529 251.847 161.994C251.857 161.459 252.009 160.936 252.286 160.478C252.465 160.255 252.616 160.009 252.733 159.747C252.936 159.188 252.682 158.558 252.733 157.959C252.916 155.287 257.753 156.455 259.288 156.943C259.735 157.095 262.337 157.766 263.353 158.121C263.262 156.655 263.406 155.183 263.78 153.763C264.471 150.989 266.758 151.273 266.89 152.97C267.016 154.506 267.302 156.025 267.744 157.501C268.028 158.589 268.76 159.666 269.176 161.271C269.776 163.303 269.624 164.441 271.656 166.351C274.705 169.226 290.356 179.833 290.356 179.833C294.259 177.324 309.361 168.037 315.022 164.969C320.499 161.992 323.294 164.39 323.294 164.39L318.518 181.977C318.518 181.977 299.686 191.69 292.897 194.657C288.161 196.689 286.067 195.551 280.844 190.898C276.697 186.976 271.229 181.306 265.325 176.084C262.967 173.991 261.26 172.924 259.593 172.843C258.963 172.843 258.333 172.772 257.713 172.711C256.31 172.548 254.664 172.203 253.983 170.811C253.749 170.344 253.637 169.795 253.444 169.328C253.149 168.576 252.682 167.905 252.428 167.154C252.219 166.65 252.148 166.099 252.225 165.558C252.225 165.121 252.591 164.685 252.53 164.197Z" fill="#E8F5E9"/>
<path d="M324.29 163.039C319.473 163.039 317.603 163.039 311.485 166.513C305.367 169.988 293.435 177.883 293.435 177.883C293.435 177.883 298.781 180.859 299.848 191.426L319.158 182.363L324.29 163.039Z" fill="#455A64"/>
<path d="M261.493 159.737C263.089 160.123 263.587 161.129 263.699 163.374C263.76 164.705 264.319 167.133 265.833 168.017C265.132 167.992 264.455 167.754 263.892 167.336C263.16 166.676 262.967 166.615 262.611 167.042C262.348 167.328 262.021 167.548 261.656 167.682C261.917 167.944 262.087 168.283 262.141 168.649C262.194 169.015 262.127 169.389 261.951 169.714C261.331 170.913 258.211 171.146 255.568 169.998C255.568 169.998 259.806 171.014 260.65 169.633C261.493 168.251 259.217 166.747 257.601 166.412C257.601 166.412 261.666 167.093 262.194 165.741C262.723 164.39 260.995 163.506 258.597 163.069C258.597 163.069 261.951 163.445 262.438 162.277C262.621 161.811 262.626 161.295 262.451 160.826C262.277 160.358 261.936 159.97 261.493 159.737Z" fill="#C8E6C9"/>
<path d="M290.315 179.864C292.43 181.275 294.067 183.295 295.011 185.655C295.011 185.655 295.346 181.195 291.677 179L290.315 179.864Z" fill="#C8E6C9"/>
<path d="M312.176 180.412C312.776 168.454 317.593 163.628 324.29 163.039L339.342 162.023C343.407 162.967 353.976 164.999 353.976 164.999C358.357 166.31 361.436 177.73 360.409 184.232C359.383 190.735 357.239 195.693 356.639 206.635C356.812 216.999 356.964 219.051 356.964 223.115C347.604 229.059 322.461 230.298 312.572 224.334C312.572 224.334 312.4 214.316 312.196 207.936C311.851 196.993 311.973 184.527 312.176 180.412Z" fill="#2BB79D"/>
<path d="M316.129 129.683C315.524 130.029 315.023 130.531 314.68 131.137C314.337 131.743 314.163 132.431 314.178 133.127C314.154 134.171 314.452 135.196 315.032 136.064C315.908 137.171 317.121 137.962 318.487 138.319C319.076 138.46 319.651 138.654 320.205 138.898C320.895 139.39 321.541 139.941 322.136 140.544C323.061 141.256 323.975 141.987 324.92 142.678C326.794 144.077 328.753 145.36 330.784 146.518C332.737 147.636 334.776 148.594 336.882 149.384C339.108 150.207 340.947 149.485 343.325 149.699L342.98 156.14C342.98 156.14 343.773 154.657 344.677 152.889C345.46 151.365 348.742 143.602 348.742 143.602C350.023 140.554 351.649 137.364 351.456 133.961C351.293 131.207 350.744 128.789 348.651 127.621C348.478 124.451 347.757 122.906 345.531 121.21C343.889 120.1 342.002 119.402 340.033 119.178C337.808 118.921 335.557 119 333.356 119.411C330.063 119.94 326.77 120.783 323.437 120.61C321.655 120.42 319.855 120.534 318.111 120.946C317.004 121.305 316.042 122.012 315.37 122.963C314.698 123.913 314.351 125.055 314.381 126.219C314.31 127.428 315.276 129.419 316.129 129.683Z" fill="#37474F"/>
<path d="M336.984 130.506C336.984 132.538 338.854 135.414 341.699 137.893C341.363 139.773 341.415 141.702 341.852 143.562C342.027 144.14 342.294 144.686 342.645 145.177C342.774 145.383 342.948 145.558 343.154 145.688C343.36 145.818 343.592 145.9 343.834 145.929C344.494 145.929 344.758 145.584 344.962 145.066C345.262 144.409 345.601 143.771 345.978 143.156C346.146 142.893 346.34 142.648 346.557 142.424C347.574 141.499 350.511 140.392 351.883 143.521C353.255 146.651 350.683 151.08 348.305 151.741C344.24 152.889 343.315 150.095 343.315 150.095L343.386 163.648C342.238 167.082 335.876 170.425 330.754 169.744C325.632 169.064 327.258 165.975 329.341 163.882L329.077 159.178C327.254 159.359 325.414 159.29 323.609 158.975C321.485 158.568 319.737 156.577 318.853 153.336C317.445 147.161 317.238 140.773 318.243 134.519C319.016 130.699 319.961 129.053 320.418 128.606C320.418 129.439 322.014 131.99 326.15 132.559C330.52 133.189 333.833 131.807 336.984 130.506Z" fill="#E8F5E9"/>
<path d="M329.057 159.198C332.837 158.853 335.907 158.335 338.041 157.166C339.606 156.343 340.957 153.773 341.364 152.858C341.364 152.858 341.262 156.374 339.159 158.324C336.191 161.078 329.168 161.078 329.168 161.078L329.057 159.198Z" fill="#C8E6C9"/>
<path d="M331.038 141.946C331.041 142.215 331.122 142.477 331.272 142.7C331.421 142.923 331.633 143.097 331.881 143.201C332.129 143.304 332.402 143.333 332.666 143.283C332.93 143.233 333.174 143.106 333.366 142.919C333.559 142.732 333.693 142.492 333.75 142.23C333.808 141.968 333.788 141.694 333.691 141.443C333.595 141.192 333.427 140.976 333.208 140.819C332.99 140.663 332.73 140.575 332.461 140.565C332.277 140.562 332.094 140.596 331.923 140.664C331.752 140.732 331.596 140.833 331.464 140.961C331.331 141.089 331.226 141.242 331.153 141.411C331.08 141.58 331.041 141.762 331.038 141.946Z" fill="#263238"/>
<path d="M331.536 137.466L334.86 138.837C335.033 138.384 335.024 137.881 334.834 137.434C334.645 136.987 334.29 136.631 333.843 136.44C333.625 136.35 333.391 136.306 333.155 136.31C332.919 136.313 332.686 136.364 332.471 136.46C332.255 136.556 332.061 136.695 331.901 136.868C331.74 137.04 331.616 137.244 331.536 137.466Z" fill="#263238"/>
<path d="M332.837 149.343L327.756 151.375C327.876 151.716 328.065 152.028 328.309 152.294C328.554 152.56 328.85 152.773 329.18 152.922C329.51 153.07 329.866 153.15 330.227 153.156C330.589 153.163 330.948 153.096 331.282 152.96C331.956 152.672 332.494 152.135 332.783 151.462C333.073 150.789 333.092 150.03 332.837 149.343Z" fill="#388E3B"/>
<path d="M329.88 152.909C329.875 152.994 329.875 153.078 329.88 153.163C330.357 153.24 330.846 153.184 331.293 153C331.805 152.781 332.24 152.415 332.544 151.949C332.848 151.482 333.007 150.936 333 150.379C332.82 150.339 332.636 150.318 332.451 150.318C331.767 150.324 331.113 150.599 330.632 151.084C330.15 151.57 329.88 152.225 329.88 152.909Z" fill="#C8E6C9"/>
<path d="M319.097 138.756L322.38 137.486C322.304 137.271 322.186 137.073 322.032 136.904C321.877 136.735 321.691 136.599 321.483 136.505C321.275 136.41 321.05 136.358 320.822 136.352C320.594 136.346 320.366 136.386 320.154 136.47C319.712 136.635 319.353 136.967 319.155 137.396C318.957 137.824 318.936 138.313 319.097 138.756Z" fill="#263238"/>
<path d="M319.941 141.652C319.93 141.836 319.956 142.021 320.017 142.195C320.078 142.37 320.173 142.53 320.297 142.667C320.421 142.805 320.571 142.916 320.739 142.994C320.906 143.073 321.087 143.117 321.272 143.125C321.557 143.145 321.842 143.08 322.089 142.937C322.337 142.794 322.536 142.58 322.661 142.323C322.786 142.066 322.832 141.778 322.792 141.495C322.752 141.212 322.628 140.948 322.436 140.736C322.245 140.524 321.994 140.374 321.716 140.305C321.439 140.237 321.147 140.253 320.879 140.351C320.611 140.45 320.378 140.626 320.211 140.858C320.043 141.09 319.949 141.366 319.941 141.652Z" fill="#263238"/>
<path d="M327.238 148.672L322.176 147.717L326.953 139.63L327.238 148.672Z" fill="#C8E6C9"/>
<path d="M354.85 165.243C361.182 166.341 365.013 168.373 366.639 173.371C368.946 180.483 375.4 200.631 376.731 207.794C377.544 212.193 378.815 214.977 375.085 217.872C366.197 224.302 356.917 230.172 347.299 235.449C338.844 239.879 326.079 240.753 326.079 240.753L335.337 235.155L336.984 232.015L361.731 210.1L352.381 182.485C352.381 182.485 350.023 168.291 354.85 165.243Z" fill="#E8F5E9"/>
<path d="M361.731 210.1C363.742 209.064 365.973 208.528 368.235 208.535C368.235 208.535 366.04 206.646 361.192 208.535L361.731 210.1Z" fill="#C8E6C9"/>
<path d="M353.976 165C356.873 165.538 360.074 165.853 363.021 167.722C365.969 169.592 366.507 171.858 368.774 178.838C371.04 185.817 373.713 196.11 373.713 196.11C373.713 196.11 368.164 200.804 358.611 200.936C358.611 200.936 353.905 187.88 352.747 184.974C351.588 182.068 348.671 172.701 353.976 165Z" fill="#455A64"/>
<path d="M343.773 227.718V228.591C343.782 229.022 343.678 229.448 343.471 229.826C343.265 230.204 342.962 230.521 342.594 230.745L319.524 244.746C319.15 244.956 318.728 245.066 318.299 245.066C317.87 245.066 317.449 244.956 317.075 244.746L273.618 220.951C273.242 220.74 272.928 220.436 272.705 220.067C272.482 219.698 272.359 219.278 272.347 218.848V218.259L318.274 243.435L343.773 227.718Z" fill="#4CAF4F"/>
<g opacity="0.5">
<path opacity="0.5" d="M343.773 227.718V228.591C343.782 229.022 343.678 229.448 343.471 229.826C343.265 230.204 342.962 230.521 342.594 230.745L319.524 244.746C319.15 244.956 318.728 245.066 318.299 245.066C317.87 245.066 317.449 244.956 317.075 244.746L273.618 220.951C273.242 220.74 272.928 220.436 272.705 220.067C272.482 219.698 272.359 219.278 272.347 218.848V218.259L318.274 243.435L343.773 227.718Z" fill="white"/>
</g>
<g opacity="0.1">
<path opacity="0.1" d="M343.773 227.718V228.591C343.782 229.022 343.678 229.448 343.471 229.826C343.265 230.204 342.962 230.521 342.594 230.745L319.524 244.746C319.15 244.956 318.728 245.066 318.299 245.066C317.87 245.066 317.449 244.956 317.075 244.746L273.618 220.951C273.242 220.74 272.928 220.436 272.705 220.067C272.482 219.698 272.359 219.278 272.347 218.848V218.259L318.274 243.435L343.773 227.718Z" fill="#103E13"/>
</g>
<path d="M272.337 218.258L297.45 203.018C297.673 202.891 297.925 202.824 298.182 202.824C298.438 202.824 298.691 202.891 298.913 203.018L343.63 227.524C343.679 227.553 343.719 227.594 343.747 227.643C343.775 227.692 343.789 227.748 343.789 227.804C343.789 227.86 343.775 227.916 343.747 227.965C343.719 228.014 343.679 228.054 343.63 228.083L318.274 243.476L272.337 218.258Z" fill="#4CAF4F"/>
<g opacity="0.85">
<path opacity="0.85" d="M272.337 218.258L297.45 203.018C297.673 202.891 297.925 202.824 298.182 202.824C298.438 202.824 298.691 202.891 298.913 203.018L343.63 227.524C343.679 227.553 343.719 227.594 343.747 227.643C343.775 227.692 343.789 227.748 343.789 227.804C343.789 227.86 343.775 227.916 343.747 227.965C343.719 228.014 343.679 228.054 343.63 228.083L318.274 243.476L272.337 218.258Z" fill="white"/>
</g>
<path d="M318.05 241.048L331.597 232.828L291.372 210.781L277.754 218.96L318.05 241.048Z" fill="#4CAF4F"/>
<g opacity="0.6">
<path opacity="0.6" d="M318.05 241.048L331.597 232.828L291.372 210.781L277.754 218.96L318.05 241.048Z" fill="white"/>
</g>
<path d="M324.717 219.112L324.463 219.264L317.827 223.298L305.712 216.653L305.458 216.521L312.349 212.335L324.717 219.112Z" fill="#4CAF4F"/>
<path d="M324.463 219.264L317.827 223.298L305.712 216.653L312.359 212.63L324.463 219.264Z" fill="#4CAF4F"/>
<g opacity="0.6">
<path opacity="0.6" d="M324.463 219.264L317.827 223.298L305.712 216.653L312.359 212.63L324.463 219.264Z" fill="white"/>
</g>
<path d="M318.264 243.435V245.061C317.835 245.075 317.41 244.973 317.034 244.766L273.618 220.951C273.242 220.74 272.928 220.436 272.705 220.067C272.482 219.698 272.359 219.278 272.347 218.848V218.259L318.264 243.435Z" fill="#4CAF4F"/>
<g opacity="0.03">
<path opacity="0.03" d="M318.264 243.435V245.061C317.835 245.075 317.41 244.973 317.034 244.766L273.618 220.951C273.242 220.74 272.928 220.436 272.705 220.067C272.482 219.698 272.359 219.278 272.347 218.848V218.259L318.264 243.435Z" fill="white"/>
</g>
<g opacity="0.2">
<path opacity="0.2" d="M318.264 243.435V245.061C317.835 245.075 317.41 244.973 317.034 244.766L273.618 220.951C273.242 220.74 272.928 220.436 272.705 220.067C272.482 219.698 272.359 219.278 272.347 218.848V218.259L318.264 243.435Z" fill="#103E13"/>
</g>
<path d="M317.583 243.811C317.181 243.979 316.746 244.053 316.311 244.029C315.876 244.004 315.453 243.881 315.072 243.669L271.819 219.955C271.44 219.745 271.113 219.454 270.86 219.103C270.607 218.752 270.434 218.349 270.355 217.923L265.071 190.146C265.056 189.987 265.056 189.827 265.071 189.668C265.061 189.284 265.128 188.902 265.267 188.545C265.407 188.187 265.616 187.861 265.884 187.585L310.784 212.234C311.062 212.383 311.303 212.593 311.49 212.848C311.676 213.103 311.803 213.396 311.861 213.707L317.583 243.811Z" fill="#4CAF4F"/>
<g opacity="0.4">
<path opacity="0.4" d="M317.523 244.226C317.121 244.394 316.686 244.468 316.251 244.443C315.817 244.419 315.393 244.296 315.013 244.083L271.759 220.37C271.38 220.16 271.053 219.869 270.8 219.518C270.547 219.166 270.375 218.764 270.296 218.338L265.011 190.56C264.996 190.401 264.996 190.242 265.011 190.083C265.001 189.699 265.068 189.317 265.207 188.959C265.347 188.602 265.557 188.276 265.824 188L310.724 212.648C311.002 212.798 311.243 213.008 311.43 213.263C311.616 213.518 311.743 213.811 311.801 214.121L317.523 244.226Z" fill="#2BB79D"/>
</g>
<path d="M318.264 243.435L317.979 243.608C317.852 243.686 317.72 243.753 317.583 243.811L311.861 213.747C311.803 213.437 311.676 213.144 311.49 212.889C311.303 212.634 311.062 212.424 310.784 212.274L265.833 187.626C266.003 187.443 266.198 187.286 266.412 187.159L311.465 211.847C311.741 212.002 311.98 212.215 312.166 212.471C312.352 212.727 312.481 213.02 312.542 213.331L318.264 243.435Z" fill="#4CAF4F"/>
<g opacity="0.6">
<path opacity="0.6" d="M318.264 243.435L317.979 243.608C317.852 243.686 317.72 243.753 317.583 243.811L311.861 213.747C311.803 213.437 311.676 213.144 311.49 212.889C311.303 212.634 311.062 212.424 310.784 212.274L265.833 187.626C266.003 187.443 266.198 187.286 266.412 187.159L311.465 211.847C311.741 212.002 311.98 212.215 312.166 212.471C312.352 212.727 312.481 213.02 312.542 213.331L318.264 243.435Z" fill="white"/>
</g>
<path d="M311.444 212.833L312.115 212.427C312.327 212.69 312.474 213 312.542 213.331L318.264 243.435L317.979 243.608C317.852 243.686 317.72 243.753 317.583 243.811L311.861 213.747C311.797 213.414 311.654 213.101 311.444 212.833Z" fill="#4CAF4F"/>
<path opacity="0.5" d="M311.444 212.833L312.115 212.427C312.327 212.69 312.474 213 312.542 213.331L318.264 243.435L317.979 243.608C317.852 243.686 317.72 243.753 317.583 243.811L311.861 213.747C311.797 213.414 311.654 213.101 311.444 212.833Z" fill="white"/>
<path opacity="0.1" d="M311.444 212.833L312.115 212.427C312.327 212.69 312.474 213 312.542 213.331L318.264 243.435L317.979 243.608C317.852 243.686 317.72 243.753 317.583 243.811L311.861 213.747C311.797 213.414 311.654 213.101 311.444 212.833Z" fill="#103E13"/>
<path d="M292.958 218.604C292.235 216.287 290.649 214.337 288.527 213.158C286.443 212.02 285.031 212.589 285.386 214.459C285.742 216.328 287.724 218.746 289.818 219.894C291.911 221.042 293.314 220.463 292.958 218.604Z" fill="#455A64"/>
<path d="M344.616 225.259C342.197 226.956 338.935 225.584 335.724 225.97C332.512 226.356 329.768 227.149 327.187 227.077C324.605 227.006 323.345 227.524 325.154 229.587C326.963 231.649 332.136 230.461 333.539 231.091C333.938 231.324 334.279 231.645 334.536 232.029C334.793 232.414 334.959 232.852 335.022 233.31C335.085 233.768 335.042 234.234 334.898 234.674C334.753 235.113 334.511 235.514 334.189 235.846C332.675 237.603 342.807 234.21 344.159 232.127C345.511 230.044 346.445 225.523 344.616 225.259Z" fill="#E8F5E9"/>
</svg>
