<svg width="82" height="82" viewBox="0 0 82 82" fill="none" xmlns="http://www.w3.org/2000/svg">
<circle cx="40.6705" cy="40.6706" r="40" transform="rotate(-90.9688 40.6705 40.6706)" fill="#2BB79D"/>
<path d="M18.75 61C17.7917 61 16.9271 60.6146 16.1562 59.8438C15.3854 59.0729 15 58.2083 15 57.25V24.75C15 23.7917 15.3854 22.9271 16.1562 22.1562C16.9271 21.3854 17.7917 21 18.75 21H34.75C35.25 21 35.7396 21.1042 36.2188 21.3125C36.6979 21.5208 37.1042 21.7917 37.4375 22.125L40.0625 24.75H61.25C62.2083 24.75 63.0729 25.1354 63.8438 25.9062C64.6146 26.6771 65 27.5417 65 28.5H22.5C21.4583 28.5 20.5729 28.8646 19.8438 29.5938C19.1146 30.3229 18.75 31.2083 18.75 32.25V57.25L24.375 35.0625C24.5833 34.2292 25.0417 33.5521 25.75 33.0312C26.4583 32.5104 27.2292 32.25 28.0625 32.25H63.875C65.0833 32.25 66.0833 32.7292 66.875 33.6875C67.6667 34.6458 67.8958 35.7292 67.5625 36.9375L62.0625 58.125C61.8125 59.125 61.3542 59.8542 60.6875 60.3125C60.0208 60.7708 59.1667 61 58.125 61H18.75Z" fill="#FBFBFB"/>
</svg>
