<svg class="text-secondary-emphasis" xmlns="http://www.w3.org/2000/svg" width="48" height="48" fill="currentColor"><path d="M41.441 35.281a.95.95 0 0 1-.184-.018.99.99 0 0 1-.175-.054.93.93 0 0 1-.162-.086.91.91 0 0 1-.142-.116c-.043-.043-.082-.091-.117-.142s-.063-.105-.085-.162-.042-.116-.053-.175a.95.95 0 0 1-.019-.184.93.93 0 0 1 .019-.183.88.88 0 0 1 .053-.175c.023-.057.052-.112.085-.162a.93.93 0 0 1 .117-.142c.174-.174.416-.275.663-.275a.94.94 0 0 1 .663.275c.043.043.082.091.116.142a.97.97 0 0 1 .087.162c.024.057.041.115.053.175a.93.93 0 0 1 .019.183.95.95 0 0 1-.019.184c-.012.059-.03.118-.053.175a.94.94 0 0 1-.087.162c-.034.052-.073.099-.116.142s-.091.082-.143.116a.86.86 0 0 1-.162.086.95.95 0 0 1-.175.054.93.93 0 0 1-.183.018zM27.48 37.367c-9.238 0-16.753-7.515-16.753-16.752S18.242 3.862 27.48 3.862s16.754 7.515 16.754 16.752-7.516 16.753-16.754 16.753zm0-31.63c-8.204 0-14.878 6.674-14.878 14.877A14.9 14.9 0 0 0 27.48 35.492a14.9 14.9 0 0 0 14.879-14.878A14.9 14.9 0 0 0 27.48 5.737zm-3.993 17.638a.94.94 0 0 1-.925-.79.94.94 0 0 1 .617-1.033c.162-.489.689-.756 1.18-.596l1.025.334a.94.94 0 0 1 .644.965c-.034.432-.359.784-.787.852l-1.605.256a.94.94 0 0 1-.149.012zm8.37 0a.94.94 0 0 1-.149-.012l-1.605-.256a.94.94 0 0 1-.143-1.817l1.025-.334a.94.94 0 0 1 1.18.596.94.94 0 0 1 .617 1.033.94.94 0 0 1-.925.79zM41.989 6.104A20.38 20.38 0 0 0 27.478.094a20.39 20.39 0 0 0-14.511 6.01 20.38 20.38 0 0 0-6.011 14.51 20.37 20.37 0 0 0 5.363 13.833l-1.308 1.308-1.546-1.546a.94.94 0 0 0-1.326 0l-6.95 6.95C.423 41.925 0 42.945 0 44.03s.423 2.105 1.189 2.871a4.05 4.05 0 0 0 2.872 1.188 4.05 4.05 0 0 0 2.872-1.188l6.95-6.949c.176-.176.275-.414.275-.663s-.099-.487-.275-.663l-1.546-1.546 1.308-1.308c3.018 2.76 6.728 4.53 10.788 5.136 1.029.154 2.057.23 3.08.23a20.38 20.38 0 0 0 9.325-2.256.94.94 0 0 0 .407-1.262.94.94 0 0 0-1.262-.407c-7.226 3.703-15.941 2.332-21.688-3.414a18.52 18.52 0 0 1-5.463-13.186A18.52 18.52 0 0 1 14.293 7.43c7.271-7.27 19.101-7.27 26.371 0 5.964 5.963 7.184 15.221 2.966 22.512a.94.94 0 0 0 .342 1.281.94.94 0 0 0 1.281-.342c4.643-8.025 3.3-18.214-3.263-24.777zM11.895 39.289l-6.287 6.287a2.19 2.19 0 0 1-3.092 0 2.17 2.17 0 0 1 0-3.092l6.287-6.287.883.883-2.639 2.639a.94.94 0 0 0 0 1.326c.183.183.423.275.663.275s.48-.092.663-.275l2.639-2.639.883.883zm23.459-13.825v-2.415c.184-.75 1.136-4.809 1.137-8.386 0-1.47-.33-2.859-.607-3.765l-.418-1.188c-.201-.5-.284-.707-.579-.879a.94.94 0 0 0-1.058.078l-.241.193a6.23 6.23 0 0 1-5.206 1.234c-2.622-.557-5.338.498-6.898 2.64-.835.124-1.604.543-2.164 1.192a3.55 3.55 0 0 0-.824 2.839 1.01 1.01 0 0 0 .024.114l1.46 5.258v3.086c0 1.853.942 3.422 2.725 4.535.703.439 1.511.796 2.408 1.063l-.022 1.583a.94.94 0 0 0 .938.95h3.273a.94.94 0 0 0 .938-.95l-.022-1.581c.9-.266 1.709-.622 2.413-1.061 1.779-1.111 2.72-2.68 2.72-4.539zm-6.222 3.95l-.103.025a.94.94 0 0 0-.693.918l.018 1.363h-1.372l.019-1.363a.94.94 0 0 0-.693-.918l-.097-.024c-1.309-.314-4.352-1.325-4.352-3.952v-6.082c0-.19.155-.345.345-.345h3.445a8.71 8.71 0 0 0 6.002-2.385.94.94 0 0 0 .038-1.325.94.94 0 0 0-1.325-.038c-1.28 1.208-2.955 1.873-4.715 1.873h-3.444c-.601 0-1.148.241-1.548.63l-.309-1.111a1.67 1.67 0 0 1 .395-1.288c.319-.369.781-.58 1.268-.58a.94.94 0 0 0 .799-.447l.015-.024c1.09-1.724 3.168-2.596 5.169-2.171a8.09 8.09 0 0 0 5.992-1.054c.291.869.63 2.176.63 3.547l-.103 2.099a.95.95 0 0 0-.148-.01.94.94 0 0 0-.93.945l.043 5.239v2.528c0 2.636-3.04 3.641-4.347 3.95zm-1.461-1.163a2.41 2.41 0 0 1-2.201-1.433.94.94 0 0 1 .479-1.237.94.94 0 0 1 1.236.478.53.53 0 0 0 .971 0c.209-.474.763-.688 1.236-.478a.94.94 0 0 1 .479 1.237 2.41 2.41 0 0 1-2.201 1.433z"></path></svg>