<svg class="text-secondary-emphasis" xmlns="http://www.w3.org/2000/svg" width="48" height="48" fill="currentColor"><path d="M43.313 0H18.938c-2.585 0-4.687 2.103-4.687 4.688v8.438H4.688C2.103 13.125 0 15.228 0 17.813v19.875c0 2.585 2.103 4.688 4.688 4.688h1.875v4.688a.94.94 0 0 0 .938.937.94.94 0 0 0 .663-.275l5.35-5.35h15.549c2.585 0 4.688-2.103 4.688-4.687V29.25h1.875v4.688a.94.94 0 0 0 .938.937.94.94 0 0 0 .663-.275l5.35-5.35h1.487c2.392 0 3.938-1.84 3.938-4.687V4.688A4.7 4.7 0 0 0 43.313 0zM31.875 37.688c0 1.551-1.262 2.813-2.812 2.813H13.125a.94.94 0 0 0-.663.275l-4.025 4.025v-3.362A.94.94 0 0 0 7.5 40.5H4.688c-1.551 0-2.812-1.262-2.812-2.812V17.813C1.875 16.262 3.137 15 4.688 15h24.375c1.551 0 2.813 1.262 2.813 2.813v19.875zm14.25-13.125c0 1.05-.268 2.813-2.062 2.813h-1.875a.94.94 0 0 0-.663.275L37.5 31.674v-3.362a.94.94 0 0 0-.937-.937H33.75v-6.75h5.813a.94.94 0 0 0 .938-.937.94.94 0 0 0-.937-.937H33.75v-.937c0-2.585-2.103-4.687-4.687-4.687H16.125V4.688c0-1.551 1.262-2.812 2.813-2.812h24.375c1.551 0 2.813 1.262 2.813 2.813v19.875zM39.563 7.5H22.688a.94.94 0 0 0-.937.938.94.94 0 0 0 .938.938h16.875a.94.94 0 0 0 .938-.937.94.94 0 0 0-.937-.937zm0 5.625h-3.75a.94.94 0 0 0-.937.938.94.94 0 0 0 .938.938h3.75a.94.94 0 0 0 .938-.937.94.94 0 0 0-.937-.937zM8.438 22.5a.94.94 0 0 0 .938-.937.94.94 0 0 0-.937-.937.94.94 0 0 0-.937.938.94.94 0 0 0 .938.938zm16.875-1.875H12.188a.94.94 0 0 0-.937.938.94.94 0 0 0 .938.938h13.125a.94.94 0 0 0 .938-.937.94.94 0 0 0-.937-.937zm0 5.625h-9.375a.94.94 0 0 0-.937.938.94.94 0 0 0 .938.938h9.375a.94.94 0 0 0 .938-.937.94.94 0 0 0-.937-.937zM8.438 28.125h3.75a.94.94 0 0 0 .938-.937.94.94 0 0 0-.937-.937h-3.75a.94.94 0 0 0-.937.938.94.94 0 0 0 .938.938zm9.375 3.75H8.625a.94.94 0 0 0-.937.938.94.94 0 0 0 .938.938h9.188a.94.94 0 0 0 .938-.937.94.94 0 0 0-.937-.937z"></path></svg>