<svg class="text-secondary-emphasis" xmlns="http://www.w3.org/2000/svg" width="48" height="48" fill="currentColor"><path d="M4.519 8.136c.196.471.752.703 1.224.507s.703-.752.507-1.224-.752-.703-1.224-.507-.704.753-.507 1.224zm3.875 0c.153.368.535.607.935.576.391-.03.729-.307.834-.685.222-.798-.673-1.478-1.384-1.054-.393.234-.56.74-.384 1.163zM4.752 44.84h35.053A8.21 8.21 0 0 0 48 36.645a8.21 8.21 0 0 0-7.257-8.141l-.001-20.593A4.76 4.76 0 0 0 35.99 3.16H4.752A4.76 4.76 0 0 0 0 7.912v32.175a4.76 4.76 0 0 0 4.752 4.753zm0-1.875a2.88 2.88 0 0 1-2.877-2.878V12.202h36.993v16.302a8.28 8.28 0 0 0-6.536 4.779H5.76a.94.94 0 0 0-.937.938v4.766a.94.94 0 0 0 .938.938h9.613a.94.94 0 0 0 .938-.937.94.94 0 0 0-.937-.937H6.698V35.16h25.048a8.24 8.24 0 0 0-.135 1.487c0 .47.04.941.12 1.405h-8.109a.94.94 0 0 0-.937.938.94.94 0 0 0 .938.938h8.675a8.28 8.28 0 0 0 2.298 3.04H4.752zm41.373-6.32a6.33 6.33 0 0 1-6.32 6.32 6.39 6.39 0 0 1-6.32-6.32 6.31 6.31 0 0 1 .132-1.285c.595-2.871 3.144-5.035 6.188-5.035a6.33 6.33 0 0 1 6.32 6.319zM4.752 5.035H35.99a2.88 2.88 0 0 1 2.877 2.877v2.415H1.875V7.912a2.88 2.88 0 0 1 2.877-2.877zm2.879 23.769a8.43 8.43 0 0 0 5.579 2.124 8.43 8.43 0 0 0 5.58-2.125 8.4 8.4 0 0 0-5.579-14.654 8.4 8.4 0 0 0-5.579 14.655zm5.293.242a6.54 6.54 0 0 1-3.678-1.339 4.04 4.04 0 0 1 3.954-3.3c1.973.004 3.628 1.419 3.972 3.3-1.208.927-2.728 1.407-4.249 1.34zm-1.021-7.821a1.31 1.31 0 0 1 1.307-1.307 1.31 1.31 0 0 1 1.307 1.307 1.31 1.31 0 0 1-1.301 1.307 1.31 1.31 0 0 1-1.312-1.307zm1.307-5.201c3.593 0 6.515 2.922 6.515 6.514 0 1.287-.383 2.534-1.08 3.589-.563-1.321-1.596-2.39-2.879-3.01.393-.529.626-1.184.626-1.893 0-1.755-1.428-3.182-3.182-3.182s-3.182 1.427-3.182 3.182c0 .708.233 1.363.626 1.892-1.283.62-2.315 1.69-2.878 3.011a6.52 6.52 0 0 1-1.08-3.589c0-3.592 2.922-6.514 6.514-6.514zm25.504 21.598l-1.285-1.285a.94.94 0 0 0-1.326 0 .94.94 0 0 0 0 1.326l1.948 1.948a.94.94 0 0 0 1.326 0l4.368-4.367a.94.94 0 0 0 0-1.326.94.94 0 0 0-1.326 0l-3.704 3.705z"></path></svg>