<svg class="position-relative z-1" xmlns="http://www.w3.org/2000/svg" width="24" height="24" fill="currentColor"><path d="M12.33 14.472a.47.47 0 0 0-.517.415l-.096.874-.874-.096a.47.47 0 0 0-.517.415l-.096.874-.873-.096a.47.47 0 0 0-.517.415l-.096.874-.874-.096a.47.47 0 0 0-.517.415l-.096.874-.874-.096a.47.47 0 0 0-.517.415l-.096.874-.874-.096a.47.47 0 0 0-.517.415l-.042.39-2.104-2.104 7.363-7.363a.47.47 0 0 0 0-.663.47.47 0 0 0-.663 0l-7.694 7.694a.47.47 0 0 0 0 .663l3.127 3.127a.47.47 0 0 0 .797-.28l.098-.896.873.096a.47.47 0 0 0 .517-.415l.096-.874.874.096a.47.47 0 0 0 .517-.415l.096-.873.874.096a.47.47 0 0 0 .517-.415l.096-.873.873.096a.47.47 0 0 0 .517-.415l.096-.874.874.096a.47.47 0 0 0 .517-.415l.147-1.339a.47.47 0 0 0-.415-.517zm5.129-.986c-1.602-1.602-3.07-3.347-4.377-5.201l2.629-2.629 3.042 3.042a.47.47 0 0 0 .331.137h1.298l-.99.99-1.116-.123a.47.47 0 0 0-.517.415l-.096.874-.873-.096a.47.47 0 0 0-.517.415.47.47 0 0 0 .415.517l1.339.147c.017.002.035.003.052.003a.47.47 0 0 0 .465-.418l.096-.873.874.096a.47.47 0 0 0 .383-.135l1.948-1.948 1.621-1.621a1.83 1.83 0 0 0 0-2.587l-2.664-2.664a1.83 1.83 0 0 0-2.587 0L15.38 4.662 12.542 7.5l-.188-.282-1.019-1.55a1.12 1.12 0 0 0-.332-.791L8.192 2.065c-.323-.323-.795-.409-1.198-.259l-.251-.251a.99.99 0 0 0-.706-.293.99.99 0 0 0-.706.293L4.299 2.586a1 1 0 0 0 0 1.413l.093.093-4.18 2.736A.47.47 0 0 0 0 7.231c.072 3.202 2.636 5.766 5.838 5.838.168 0 .316-.079.403-.212l2.622-4.006.624.938c1.487 2.234 3.202 4.328 5.1 6.225l3.677 3.677a8.68 8.68 0 0 1 1.678 2.358 1.22 1.22 0 0 0 .895.671 1.25 1.25 0 0 0 .202.017c.321 0 .633-.127.864-.357l1.363-1.362a1.21 1.21 0 0 0 .357-.863 1.21 1.21 0 0 0-.357-.863l-5.806-5.806zm3.21-10.465l1.475 1.475-1.486 1.485h-.652l-1.148-1.148 1.802-1.802zm-1.792-.531c.303-.302.77-.341 1.115-.118l-2.129 2.129a.47.47 0 0 0 0 .663l1.617 1.617a.47.47 0 0 0 .331.137h1.04a.47.47 0 0 0 .331-.137l1.613-1.613c.353.338.352.901.006 1.247L21.32 7.898h-2.042l-2.904-2.905 2.503-2.503zm-13.915.758l1.031-1.031c.024-.024.063-.024.087 0l.179.179-1.118 1.118-.179-.179c-.024-.024-.024-.063 0-.087zm1.634 7.354l-.712.014a3.49 3.49 0 0 1-3.367-2.84.47.47 0 0 0-.55-.371.47.47 0 0 0-.371.55 4.47 4.47 0 0 0 1.487 2.541c.776.659 1.766 1.035 2.789 1.058l.102-.002-.371.567A5.03 5.03 0 0 1 .949 7.466l4.12-2.697 3.23 3.23-1.704 2.603zm-.792-6.425l1.449-1.449c.076-.076.2-.076.276 0L10.34 5.54c.05.05.057.108.057.138s-.007.088-.057.138L8.891 7.265 5.804 4.177zm13.718 15.504l-.596-.653-3.677-3.677a39.83 39.83 0 0 1-4.982-6.082l-.821-1.234 1.402-1.402.723 1.099a40.76 40.76 0 0 0 5.226 6.416l4.129 4.129-1.403 1.403zm3.08.674l-1.363 1.362c-.093.093-.204.086-.247.079a.28.28 0 0 1-.208-.156 9.68 9.68 0 0 0-.694-1.203l1.497-1.497 1.014 1.014a.28.28 0 0 1 .083.2.28.28 0 0 1-.083.2zm-4.729-4.34l-1.402-1.402a.47.47 0 0 0-.663 0 .47.47 0 0 0 0 .663l1.402 1.402a.47.47 0 0 0 .331.137c.119 0 .24-.046.332-.137a.47.47 0 0 0 0-.663zm-2.485-2.486c-.088-.087-.208-.137-.331-.137a.47.47 0 0 0-.469.469.47.47 0 0 0 .469.469.47.47 0 0 0 .331-.8z"></path></svg>