<svg class="position-relative z-1" xmlns="http://www.w3.org/2000/svg" width="24" height="24" fill="currentColor"><path d="M20.858 18.029v-7.935-1.556a.91.91 0 0 0-.626-.862v-.459A7.23 7.23 0 0 0 13.014 0a7.23 7.23 0 0 0-7.217 7.217v6.373c0 .283.23.513.513.513s.513-.23.513-.513V7.217a6.2 6.2 0 0 1 6.191-6.191 6.2 6.2 0 0 1 6.191 6.191v.414h-.978v-.414a5.22 5.22 0 0 0-5.213-5.213 5.22 5.22 0 0 0-5.213 5.213v11.039h-.978v-1.41c0-.283-.23-.513-.513-.513s-.513.23-.513.513v1.655a1.84 1.84 0 0 0-.925 1.595v.929H4.4c-.657 0-1.276.256-1.74.721a2.45 2.45 0 0 0-.721 1.741c0 .283.23.513.513.513h9.701c.283 0 .513-.23.513-.513l-.001-.033a2.61 2.61 0 0 0 1.599.546h3.968a2.61 2.61 0 0 0 .206-.009l.236.009a3.39 3.39 0 0 0 3.385-3.385c0-.998-.445-1.946-1.202-2.586zm-3.429-9.372h.286 2.004.113v.925h-2.403v-.925zM5.898 20.096c0-.449.366-.814.815-.814h1.179c.449 0 .814.365.814.814v.929H5.898v-.929zm-2.84 2.878a1.42 1.42 0 0 1 .327-.502c.271-.271.632-.421 1.015-.421h.985H9.22h.985a1.44 1.44 0 0 1 1.341.923H3.059zm8.603-7.753h-.501c-.283 0-.513.23-.513.513s.23.513.513.513h.479v.65h-.479c-.283 0-.513.23-.513.513s.23.513.513.513h.479v3.453l.003.116c-.405-.293-.902-.466-1.439-.466h-.472v-.929a1.84 1.84 0 0 0-.906-1.584V7.217c0-2.309 1.878-4.188 4.187-4.188S17.2 4.908 17.2 7.217v.421a.91.91 0 0 0-.799.9V9.74c-2.564.594-4.518 2.796-4.741 5.482zm4.528 7.693l.058.06h-1.984a1.6 1.6 0 0 1-1.598-1.598v-5.642c0-2.827 2.3-5.127 5.127-5.127h2.038v6.826c-.367-.134-.757-.203-1.157-.203a3.39 3.39 0 0 0-3.385 3.385c0 .855.32 1.672.901 2.299zm2.485.06c-.068 0-.133-.003-.196-.008a2.37 2.37 0 0 1-2.163-2.351 2.36 2.36 0 0 1 2.36-2.359 2.34 2.34 0 0 1 1.371.44c.619.443.988 1.16.988 1.919a2.36 2.36 0 0 1-2.359 2.359zm1.045-2.871c-.283 0-.513.23-.513.513a.531.531 0 1 1-1.062 0 .53.53 0 0 1 .531-.531c.283 0 .513-.23.513-.513s-.23-.513-.513-.513a1.56 1.56 0 0 0-1.557 1.557 1.56 1.56 0 0 0 1.557 1.557 1.56 1.56 0 0 0 1.556-1.557c0-.283-.23-.513-.513-.513zM6.311 14.65c-.283 0-.513.23-.513.513v.154c0 .283.23.513.513.513s.513-.23.513-.513v-.154c0-.283-.23-.513-.513-.513z"></path></svg>