<svg class="position-relative z-1" xmlns="http://www.w3.org/2000/svg" width="24" height="24" fill="currentColor"><path d="M17.183 11.986a4.74 4.74 0 0 1 .735.057.54.54 0 1 0 .168-1.071 5.85 5.85 0 0 0-.902-.07.542.542 0 1 0 0 1.084zm2.621.797c.989.664 1.686 1.664 1.963 2.814a.54.54 0 0 0 1.054-.254c-.341-1.415-1.198-2.644-2.413-3.46a.542.542 0 1 0-.604.9zm-8.356 2.713a.54.54 0 1 0 .938-.542l-.908-1.572a.542.542 0 1 0-.939.542l.908 1.572zm11.891 7.374h-.483a3.62 3.62 0 0 0 1.046-2.547c0-1.818-1.343-3.329-3.089-3.591v-.031c0-2.002-1.629-3.631-3.631-3.631a3.6 3.6 0 0 0-2.072.648l-.075-.137-2.168-3.755a.54.54 0 0 0-.74-.198l-.822.474-.291-.505a.54.54 0 0 0-.74-.198l-.821.474-3.618-6.267A2.17 2.17 0 0 0 6.193.975L5.787.271a.54.54 0 0 0-.74-.198L2.23 1.699a.54.54 0 0 0-.198.74l.406.704a2.17 2.17 0 0 0 1.881 1.084 2.14 2.14 0 0 0 .576-.079l3.619 6.268-.821.474a.54.54 0 0 0-.198.74l.291.505-.821.474a.54.54 0 0 0-.198.74l1.321 2.287c-.914.55-1.527 1.552-1.527 2.695l.002.103a2.77 2.77 0 0 0-2.549 2.756 2.75 2.75 0 0 0 .571 1.68h-.788a.542.542 0 1 0 0 1.084h19.544a.542.542 0 1 0 0-1.084zM4.858 2.998c-.251.145-.543.183-.823.108s-.513-.254-.658-.505l-.136-.235 1.877-1.084.136.235c.299.518.121 1.182-.397 1.481zm3.118 10.279l.821-.474a.54.54 0 0 0 .198-.74l-.291-.505 1.643-.949.291.505a.54.54 0 0 0 .74.198l.821-.474 1.897 3.286c.376.651.416 1.405.176 2.06l-.532-.029c-1.232 0-2.351.447-3.175 1.17a2.42 2.42 0 0 1-.693-.763l-1.897-3.286zm12.296 9.594H6.776c-.926 0-1.68-.754-1.68-1.68s.754-1.68 1.68-1.68c.106 0 .212.01.313.029a.54.54 0 0 0 .624-.674 2.04 2.04 0 0 1-.07-.534 2.06 2.06 0 0 1 .985-1.756l.305.529a3.5 3.5 0 0 0 .909 1.035 4.08 4.08 0 0 0-.24.402c-1.004.369-1.716 1.271-1.716 2.324a.542.542 0 1 0 1.084 0c0-.782.735-1.418 1.638-1.418s1.638.636 1.638 1.418a.542.542 0 1 0 1.084 0c0-1.251-1.004-2.291-2.311-2.474.641-.703 1.623-1.153 2.721-1.153 1.928 0 3.496 1.386 3.496 3.089a.542.542 0 1 0 1.084 0c0-1.789-1.242-3.319-2.982-3.911.164-.512.21-1.059.129-1.599a2.53 2.53 0 0 1 1.715-.664 2.55 2.55 0 0 1 2.547 2.547 2.57 2.57 0 0 1-.038.44.54.54 0 0 0 .554.635h.026a2.55 2.55 0 0 1 2.547 2.547 2.55 2.55 0 0 1-2.547 2.547zm-18.73.045H.639a.542.542 0 1 0 0 1.084h.903a.542.542 0 1 0 0-1.084z"></path></svg>