<svg class="position-relative z-1" xmlns="http://www.w3.org/2000/svg" width="24" height="24" fill="currentColor"><path d="M16.747 5.507h-.572v-3.88A1.63 1.63 0 0 0 14.548 0a1.63 1.63 0 0 0-1.627 1.627v3.88h-1.844v-3.88A1.63 1.63 0 0 0 9.45 0a1.63 1.63 0 0 0-1.627 1.627v3.88h-.572c-.626 0-1.135.509-1.135 1.135v5.402c0 1.239.638 2.406 1.666 3.044a2.55 2.55 0 0 1 1.212 2.18v.058a2.45 2.45 0 0 0 2.42 2.448v1.125a.5.5 0 1 0 1.001 0v-1.125h.138c1.35 0 2.449-1.099 2.449-2.449v-.033a2.63 2.63 0 0 1 .56-1.623 3.26 3.26 0 0 1 .192-.217c.133-.133.28-.253.441-.353 1.055-.655 1.685-1.788 1.685-3.03V6.641c0-.626-.509-1.135-1.135-1.135zm-2.824-3.88c0-.345.281-.626.626-.626s.626.281.626.626v3.88h-1.252v-3.88h0zm-5.098 0c0-.345.281-.626.626-.626s.626.281.626.626v3.88H8.825v-3.88h0zm8.056 10.442a2.55 2.55 0 0 1-1.212 2.18c-.227.141-.434.307-.62.494h-2.781a.5.5 0 1 0 0 1.001h2.082a3.64 3.64 0 0 0-.347 1.548v.033a1.45 1.45 0 0 1-1.448 1.448h-1.11a1.45 1.45 0 0 1-1.448-1.448v-.058c0-1.242-.63-2.375-1.685-3.03-.736-.457-1.193-1.297-1.193-2.193V6.641c0-.074.06-.133.133-.133h9.495c.074 0 .133.06.133.133v5.427zm-3.193-4.405a.5.5 0 0 0-.708 0l-2.67 2.67a.5.5 0 0 0 .354.854h1.461l-1.749 1.749a.5.5 0 1 0 .708.708l2.603-2.603a.5.5 0 0 0-.354-.855h-1.461l1.815-1.815a.5.5 0 0 0 0-.708zm-1.773 14.5a.5.5 0 0 0-.501.501v.834a.5.5 0 1 0 1.001 0v-.834a.5.5 0 0 0-.501-.501z"></path></svg>