<svg class="position-relative z-1" xmlns="http://www.w3.org/2000/svg" width="24" height="24" fill="currentColor"><path d="M24 5.516a3.27 3.27 0 0 0-3.265-3.266 3.27 3.27 0 0 0-3.265 3.266v1.84H.953c-.526 0-.953.428-.953.953l.063 12.84c.119.369.514.617.89.617h19.781A3.27 3.27 0 0 0 24 18.5V5.516zm-6.531 8.9l-3.601 1.927c-.529.283-.099 1.134.45.84l3.151-1.686v1.966l-6.252 3.35H7.551l3.437-1.841c.54-.289.09-1.13-.45-.84l-5.004 2.682H1.88l15.589-8.353v1.956zM8.382 8.309h3.6l3.913 3.913-2.344 1.256-5.169-5.169zm-3.183 3.65L.953 14.202v-1.909l2.996-1.583 1.249 1.249zM.953 15.28l4.951-2.616L7.14 13.9.953 17.169V15.28zm6.892-.675l1.257 1.257-8.149 4.367v-1.982l6.892-3.642zm9.624-3.226l-.696.373-3.442-3.442h4.139v3.069zm-4.796 2.57L9.98 15.391 2.897 8.309h4.137l5.639 5.639zM.953 8.309h.596l1.695 1.695-2.291 1.211V8.309zm12.282 12.504l4.235-2.269c.011.885.377 1.687.961 2.269h-5.196zm7.499 0c-1.275 0-2.312-1.037-2.312-2.312s1.037-2.312 2.312-2.312 2.312 1.037 2.312 2.312-1.037 2.312-2.312 2.312zm0-5.578c-.902 0-1.721.368-2.312.962v-1.876a2.34 2.34 0 0 1 2.312-2.312 2.34 2.34 0 0 1 2.312 2.312v1.876c-.592-.594-1.41-.962-2.312-.962zm2.257-3.271c-1.267-1.213-3.331-1.189-4.569.054v-.35-1.739a2.34 2.34 0 0 1 2.312-2.312 2.34 2.34 0 0 1 2.312 2.312v2.09l-.056-.054zm.001-4.392c-1.267-1.214-3.331-1.191-4.57.053V5.516c0-1.275 1.037-2.312 2.312-2.312s2.312 1.037 2.312 2.312v2.108l-.055-.053c.018.017-.02-.019 0 0zm-2.259 9.373a1.56 1.56 0 0 0-1.555 1.555 1.56 1.56 0 0 0 1.555 1.556 1.56 1.56 0 0 0 1.556-1.556 1.56 1.56 0 0 0-1.556-1.555zm0 2.158c-.332 0-.602-.27-.602-.602s.27-.602.602-.602.602.27.602.602-.27.602-.602.602zm-8.315-1.958c-.259 0-.477.218-.477.477s.218.476.477.477a.48.48 0 0 0 .476-.456.48.48 0 0 0-.476-.497z"></path></svg>