<svg class="position-relative z-1" xmlns="http://www.w3.org/2000/svg" width="24" height="24" fill="currentColor"><path d="M11.702 8.177h.677a.47.47 0 0 0 .469-.469.47.47 0 0 0-.469-.469h-.262l.239-.665a.47.47 0 0 0-.282-.6.47.47 0 0 0-.6.282l-.38 1.055a.65.65 0 0 0 .079.59c.12.172.318.274.528.274zM1.646 24h20.707a.47.47 0 0 0 .469-.469v-2.18a.47.47 0 0 0-.469-.469h-.716v-.575c0-.398-.168-.758-.436-1.013v-1.922a5.62 5.62 0 0 0-.032-.593.47.47 0 0 0-.516-.417.47.47 0 0 0-.417.516 4.71 4.71 0 0 1 .027.494v1.536h-.026-1.384a1.4 1.4 0 0 0-.214.016v-1.521a.47.47 0 0 0-.469-.469.47.47 0 0 0-.469.469v2.11a1.39 1.39 0 0 0-.247.792v.574h-4.987V19.49c.555-.194.954-.723.954-1.343v-.676c0-.785-.638-1.423-1.423-1.423s-1.423.638-1.423 1.423v.676c0 .62.399 1.149.954 1.343v1.389H6.514v-.574a1.39 1.39 0 0 0-.25-.796v-2.107a.47.47 0 0 0-.469-.469.47.47 0 0 0-.469.469v1.52a1.35 1.35 0 0 0-.212-.016H3.738V17.37c0-1.828 1.022-2.99 3.312-3.766l.983-.307 1.335 2.721c.134.273.502.346.731.145L12 14.492l1.863 1.638c.229.201.599.126.731-.148l1.309-2.701 1.049.327c.435.149.809.303 1.143.472a.47.47 0 0 0 .63-.207.47.47 0 0 0-.207-.63 9.83 9.83 0 0 0-1.27-.524l-1.451-.453-.027-.008-1.295-.404-.221-1.401a4.39 4.39 0 0 0 2.093-3.739V5.491h.046a.47.47 0 0 0 .469-.469V4.83A4.84 4.84 0 0 0 12.033 0h-.192a4.84 4.84 0 0 0-4.83 4.83v.192a.47.47 0 0 0 .469.469h.093v1.222a4.39 4.39 0 0 0 2.147 3.771l-.2 1.37-2.753.86c-1.228.415-2.13.932-2.77 1.583-.793.807-1.195 1.842-1.195 3.076v1.891c-.287.256-.469.629-.469 1.043v.575h-.686a.47.47 0 0 0-.469.469v2.18a.47.47 0 0 0 .469.469zm9.868-6.527c0-.268.218-.486.486-.486s.486.218.486.486v.676c0 .268-.218.486-.486.486s-.486-.218-.486-.486v-.676zM9.94 15.057l-1-2.037.902-.284 1.43 1.148-1.332 1.173zm4.079-.039l-1.29-1.134 1.395-1.121.033-.026.841.262-.979 2.02zM11.841.938h.192a3.9 3.9 0 0 1 3.883 3.616h-3.041a2.05 2.05 0 0 1-1.106-.329c-.347-.225-.567-.552-.797-.886-.062-.09-.118-.19-.191-.272-.201-.228-.576-.201-.743.053l-.339.516c-.241.365-.593.647-1.004.796-.237.086-.485.122-.737.122A3.9 3.9 0 0 1 11.841.938zM8.509 6.713V5.448a2.98 2.98 0 0 0 1.929-1.231 2.99 2.99 0 0 0 2.437 1.275h2.536v1.222c0 1.842-1.45 3.351-3.269 3.446a3.45 3.45 0 0 1-.535-.013C9.87 9.969 8.509 8.498 8.509 6.714zm2.682 4.321c.725.128 1.483.074 2.181-.164l.181 1.15-1.552 1.246-1.558-1.25.165-1.126a4.36 4.36 0 0 0 .585.145zm-7.922 9.274c0-.251.21-.461.461-.461h1.385a.46.46 0 0 1 .461.461v.574H3.269v-.574zm17.025-.457c.228.027.406.228.406.457v.574h-2.307v-.574a.46.46 0 0 1 .461-.461h1.385a.51.51 0 0 1 .055.004zM2.115 21.82h19.769v1.242H2.115V21.82zm17.388-6.717c.162.39.74.372.876-.028s-.318-.771-.684-.553c-.197.117-.28.37-.192.581z"></path></svg>