<svg class="position-relative z-1" xmlns="http://www.w3.org/2000/svg" width="24" height="24" fill="currentColor"><path d="M21.699 6.563h-.511v-.387a2.43 2.43 0 0 0-2.426-2.426h-.07c-.804 0-1.518.394-1.959.998a2.47 2.47 0 0 0-3.982.003 2.47 2.47 0 0 0-3.982-.003c-.442-.605-1.155-.998-1.96-.998h-.07a2.43 2.43 0 0 0-2.426 2.426v1.329h-.701c-.389 0-.706-.317-.706-.706V1.43A1.43 1.43 0 0 0 1.477 0a1.43 1.43 0 0 0-1.43 1.43v5.583c0 1.825 1.485 3.31 3.31 3.31h.956v8.814c0 .819.408 1.544 1.031 1.983v1.474A1.41 1.41 0 0 0 6.75 24a1.41 1.41 0 0 0 1.406-1.406v-1.441c.237-.159.444-.358.612-.588a2.47 2.47 0 0 0 3.982-.003 2.47 2.47 0 0 0 3.982.003 2.44 2.44 0 0 0 .588.572v1.457A1.41 1.41 0 0 0 18.727 24a1.41 1.41 0 0 0 1.406-1.406v-1.457c.636-.438 1.055-1.171 1.055-2V11.25h.511c1.292 0 2.344-1.051 2.344-2.344s-1.051-2.344-2.344-2.344zM3.357 9.385C2.049 9.385.984 8.321.984 7.013V1.43c0-.271.221-.492.492-.492s.492.221.492.492V6.8c0 .906.737 1.643 1.643 1.643h.701v.942h-.956zm3.862 13.209a.47.47 0 0 1-.469.469.47.47 0 0 1-.469-.469v-1.075a2.46 2.46 0 0 0 .457.044h.07a2.51 2.51 0 0 0 .41-.035v1.067zm3.539-1.969c-.84 0-1.523-.665-1.523-1.482V17.32a.47.47 0 0 0-.469-.469.47.47 0 0 0-.469.469v1.816a1.49 1.49 0 0 1-1.488 1.488h-.07a1.49 1.49 0 0 1-1.488-1.488V6.176a1.49 1.49 0 0 1 1.488-1.488h.07a1.49 1.49 0 0 1 1.488 1.488v7.441a.47.47 0 0 0 .469.469.47.47 0 0 0 .469-.469V6.176c0-.823.683-1.488 1.523-1.488s1.523.665 1.523 1.482v12.973c0 .817-.683 1.482-1.523 1.482zm5.508-1.482c0 .817-.683 1.482-1.523 1.482s-1.523-.665-1.523-1.482V6.17c0-.817.683-1.482 1.523-1.482s1.523.665 1.523 1.482v12.967zm2.93 3.451a.47.47 0 0 1-.469.469.47.47 0 0 1-.469-.469v-1.071a2.43 2.43 0 0 0 .434.04h.07a2.43 2.43 0 0 0 .434-.04v1.071zm1.055-3.457a1.49 1.49 0 0 1-1.488 1.488h-.07a1.49 1.49 0 0 1-1.488-1.488V6.176a1.49 1.49 0 0 1 1.488-1.488h.07a1.49 1.49 0 0 1 1.488 1.488v12.961zm1.449-8.824h-.511V7.5h.511a1.41 1.41 0 0 1 1.406 1.406 1.41 1.41 0 0 1-1.406 1.406zm.682-1.796a.45.45 0 0 0-.081-.043c-.028-.011-.058-.021-.088-.027a.47.47 0 0 0-.183 0 .44.44 0 0 0-.088.027c-.028.012-.055.026-.081.043a.4.4 0 0 0-.071.058.47.47 0 0 0-.101.511.46.46 0 0 0 .043.081.45.45 0 0 0 .058.071.5.5 0 0 0 .071.058c.025.017.053.031.081.043a.45.45 0 0 0 .088.027.47.47 0 0 0 .183 0 .47.47 0 0 0 .088-.027c.029-.012.055-.026.081-.043a.4.4 0 0 0 .071-.058.5.5 0 0 0 .058-.071.46.46 0 0 0 .043-.081.45.45 0 0 0 .027-.088.47.47 0 0 0-.128-.423.46.46 0 0 0-.071-.058zm-13.16 6.749c-.012-.028-.026-.056-.043-.081a.44.44 0 0 0-.058-.071.45.45 0 0 0-.071-.058.46.46 0 0 0-.081-.043.45.45 0 0 0-.088-.027.47.47 0 0 0-.183 0 .45.45 0 0 0-.088.027.46.46 0 0 0-.081.043.45.45 0 0 0-.071.058.44.44 0 0 0-.058.071c-.017.026-.031.053-.043.081a.45.45 0 0 0-.027.088.47.47 0 0 0 .128.422.45.45 0 0 0 .071.058.42.42 0 0 0 .081.043c.028.011.058.021.088.027a.46.46 0 0 0 .091.009.46.46 0 0 0 .091-.009.45.45 0 0 0 .088-.027c.029-.012.056-.026.081-.043a.45.45 0 0 0 .071-.058.47.47 0 0 0 .128-.422.47.47 0 0 0-.027-.088z"></path></svg>