<svg class="position-relative z-1" xmlns="http://www.w3.org/2000/svg" width="24" height="24" fill="currentColor"><path d="M19.331 17.263a4.68 4.68 0 0 0 4.671-4.672c0-1.296-.528-2.511-1.461-3.392a5.59 5.59 0 0 0 .545-2.407c0-3.081-2.507-5.588-5.588-5.588-3.004 0-5.463 2.383-5.583 5.359a5.65 5.65 0 0 0-2.624 2.34c-.296-.057-.602-.088-.914-.088-2.647 0-4.8 2.153-4.8 4.8a4.81 4.81 0 0 0 4.31 4.775v3.454H3.566a.49.49 0 0 0 0 .98h16.342a.49.49 0 0 0 0-.98h-2.895v-4.582h2.318 0zM8.378 12.306a.49.49 0 0 0-.49.49v2.594 2.014c-1.876-.241-3.331-1.847-3.331-3.788 0-2.107 1.714-3.82 3.82-3.82s3.82 1.714 3.82 3.82c0 1.941-1.455 3.547-3.331 3.788v-1.811l1.744-1.744a.49.49 0 0 0-.693-.693l-1.051 1.051v-1.411a.49.49 0 0 0-.49-.49zm7.656 9.539h-1.821l.688-.688a.49.49 0 1 0-.693-.693l-.688.688v-.959a.49.49 0 1 0-.98 0v.959l-.688-.688a.49.49 0 1 0-.693.693l.688.688h-2.98v-3.454c1.218-.124 2.303-.706 3.08-1.57.688.293 1.418.442 2.177.442h1.909v4.582zm.49-14.825a.49.49 0 0 0-.49.49v2.242l-.57-.57a1.57 1.57 0 0 0 .171-.713 1.58 1.58 0 0 0-1.577-1.577 1.58 1.58 0 0 0-1.577 1.577 1.58 1.58 0 0 0 1.577 1.577 1.57 1.57 0 0 0 .713-.171l1.263 1.263v1.938 1.088l-1.133-1.132a.49.49 0 1 0-.693.693l1.825 1.825v.735h-1.909a4.56 4.56 0 0 1-1.584-.279 4.77 4.77 0 0 0 .637-2.388c0-1.979-1.204-3.683-2.919-4.416a4.64 4.64 0 0 1 2.311-1.842.49.49 0 0 0 .324-.471l-.003-.094c0-2.541 2.067-4.608 4.608-4.608s4.608 2.067 4.608 4.608a4.61 4.61 0 0 1-.604 2.28.49.49 0 0 0 .121.626c.889.706 1.399 1.76 1.399 2.892 0 2.036-1.656 3.692-3.692 3.692h-2.318v-.938-2.067l1.744-1.744a.49.49 0 1 0-.693-.693l-1.051 1.051v-.959V7.51a.49.49 0 0 0-.49-.49zm-1.869 1.448c0 .151-.057.289-.15.394l-.028.026-.026.028a.59.59 0 0 1-.394.149.6.6 0 0 1-.597-.597.6.6 0 0 1 .597-.597.6.6 0 0 1 .597.597zM1.898 21.845H.513a.49.49 0 0 0 0 .98h1.385a.49.49 0 1 0 0-.98zm21.589 0h-1.916a.49.49 0 0 0 0 .98h1.916a.49.49 0 0 0 0-.98zM6.973 2.908c-.474-1.048-1.518-1.733-2.69-1.733a2.95 2.95 0 0 0-2.752 1.88C.664 3.199 0 3.954 0 4.862a.49.49 0 0 0 .49.49h7.588a.49.49 0 0 0 .49-.49c0-.968-.677-1.77-1.594-1.954zM1.135 4.373a.85.85 0 0 1 .697-.362l.042.001a.49.49 0 0 0 .497-.369 1.97 1.97 0 0 1 1.913-1.487 1.97 1.97 0 0 1 1.875 1.357.49.49 0 0 0 .449.337 1.01 1.01 0 0 1 .856.524H1.135z"></path></svg>