<svg class="position-relative z-1" xmlns="http://www.w3.org/2000/svg" width="24" height="24" fill="currentColor"><path d="M22.105 0H5.407a1.17 1.17 0 0 0-1.171 1.171v1.511h-1.14C1.788 2.682.724 3.746.724 5.055v3.486c0 1.309 1.065 2.373 2.373 2.373h8.273c1.05 0 1.904.854 1.904 1.904v.617h-1.663c-.296 0-.536.24-.536.536v2.145c0 .296.24.536.536.536h.134v5.336c0 1.109.902 2.011 2.011 2.011s2.011-.902 2.011-2.011v-5.336h.134c.296 0 .536-.24.536-.536v-2.145c0-.296-.24-.536-.536-.536h-1.555v-.617a2.98 2.98 0 0 0-2.976-2.976H3.097c-.717 0-1.301-.583-1.301-1.301V5.055c0-.717.583-1.301 1.301-1.301h1.14v1.511a1.17 1.17 0 0 0 1.171 1.171h8.027v2.333c0 .872.71 1.582 1.582 1.582h.778a.51.51 0 0 1 .509.51v.161c0 .872.71 1.582 1.582 1.582h.751c.872 0 1.582-.71 1.582-1.582v-.563a.51.51 0 0 1 .51-.509c.872 0 1.582-.71 1.582-1.582V6.417c.548-.098.965-.577.965-1.152V1.171C23.276.525 22.75 0 22.105 0zm-7.41 21.989a.94.94 0 0 1-.938.939.94.94 0 0 1-.939-.939v-5.336h1.877v5.336zm.67-7.482v1.073h-.134-2.95-.134v-1.073h3.218zm5.873-6.141a.51.51 0 0 1-.509.509c-.872 0-1.582.71-1.582 1.582v.563a.51.51 0 0 1-.509.509h-.751a.51.51 0 0 1-.509-.509v-.161-1.743c0-.296-.24-.536-.536-.536s-.536.24-.536.536v.246a1.56 1.56 0 0 0-.509-.085h-.778a.51.51 0 0 1-.51-.509V6.436h6.731v1.931h0zm.965-3.102c0 .054-.044.098-.098.098H5.407c-.054 0-.098-.044-.098-.098V1.171c0-.054.044-.098.098-.098h16.697c.054 0 .098.044.098.098v4.094h0zm-2.883-3.23a.54.54 0 0 0-.759 0c-.21.209-.209.549 0 .758l1.609 1.609c.105.105.242.157.379.157a.53.53 0 0 0 .379-.157c.21-.209.21-.549 0-.758L19.32 2.034zm-2.994 0a.54.54 0 0 0-.759 0c-.21.209-.209.549 0 .758l1.609 1.609c.105.105.242.157.379.157s.274-.052.379-.157c.21-.209.21-.549 0-.758l-1.609-1.609zm-2.994 0c-.21-.209-.549-.209-.758 0s-.209.549 0 .758l1.609 1.609c.105.105.242.157.379.157a.53.53 0 0 0 .379-.157c.21-.209.21-.549 0-.758l-1.609-1.609zm-2.994 0a.54.54 0 0 0-.759 0c-.21.209-.209.549 0 .758l1.609 1.609c.105.105.242.157.379.157s.274-.052.379-.157c.209-.209.209-.549 0-.758l-1.609-1.609zm-2.995 0c-.209-.209-.549-.209-.758 0s-.209.549 0 .758l1.609 1.609c.105.105.242.157.379.157s.274-.052.379-.157c.21-.209.21-.549 0-.758L7.343 2.034z"></path></svg>