<svg class="position-relative z-1" xmlns="http://www.w3.org/2000/svg" width="24" height="24" fill="currentColor"><path d="M21.337 12.788l-.791-2.789a.47.47 0 0 0-.451-.341l-2.398-.002-.138-.698a3.13 3.13 0 0 0 .634-.239c.769-.394 1.192-1.077 1.192-1.923 0-.674-.167-1.18-.367-1.682-.026-.615 1.157-1.022 1.173-1.028a.47.47 0 0 0 .306-.587.47.47 0 0 0-.588-.307c-.4.126-.936.386-1.325.777l-.102-.362c.036-1.122 1.228-1.212 1.367-1.218a.47.47 0 0 0 .45-.485.47.47 0 0 0-.485-.451 2.93 2.93 0 0 0-1.101.29 2.26 2.26 0 0 0-.444.288l-.009-.42c.016-.172.132-.675.914-.675a.47.47 0 0 0 .469-.469.47.47 0 0 0-.469-.469c-1.404 0-1.824 1.028-1.851 1.571l-.001.023c0 1.849.402 2.834.726 3.625.349.854.766 2.111-.262 2.656a2.18 2.18 0 0 1-.494.184c-.304-.832-.758-1.586-1.435-2.169-.031-.026-.064-.048-.099-.065a4.7 4.7 0 0 0-1.556-.834 2.74 2.74 0 0 0 .166-.911 2.04 2.04 0 0 0-.053-.471c.337-.103.624-.289.848-.555.784-.93.545-2.485.516-2.659a.47.47 0 0 0-.54-.382.47.47 0 0 0-.382.54c.057.331.121 1.389-.309 1.898-.146.173-.345.272-.602.303a2.01 2.01 0 0 0-.654-.43l.189-.378a.47.47 0 0 0-.21-.629.47.47 0 0 0-.629.21l-.296.592c-.012.018-.447-.004-.445 0l-.296-.592a.47.47 0 0 0-.629-.21.47.47 0 0 0-.21.629l.189.378a2.01 2.01 0 0 0-.651.427c-.243-.036-.433-.135-.577-.302-.44-.512-.398-1.55-.344-1.908a.47.47 0 0 0-.392-.534.47.47 0 0 0-.535.392c-.027.174-.239 1.729.558 2.659.219.256.497.438.819.542a2.09 2.09 0 0 0-.054.48c0 .299.059.61.165.91-.047-.132-1.512.798-1.636.905a.47.47 0 0 0-.077.086C7.549 6.513 7.1 7.203 6.78 8.072a2.24 2.24 0 0 1-.527-.186c-1.053-.54-.631-1.817-.284-2.667.323-.791.726-1.775.726-3.625l-.001-.023C6.668 1.028 6.247 0 4.843 0a.47.47 0 0 0-.469.469.47.47 0 0 0 .469.469c.782 0 .898.502.914.675l-.009.42a2.26 2.26 0 0 0-.444-.288 2.93 2.93 0 0 0-1.101-.29c-.259-.011-.476.193-.485.451a.47.47 0 0 0 .451.485c.004 0 .364.018.718.193a1.09 1.09 0 0 1 .647 1.023l-.094.339c-.363-.374-.852-.626-1.221-.75a.47.47 0 0 0-.592.294.47.47 0 0 0 .293.594c.011.004 1.112.398 1.079 1.029-.2.502-.367 1.008-.367 1.683 0 .846.424 1.529 1.192 1.923a3.15 3.15 0 0 0 .685.252l-.14.685-2.463.002a.47.47 0 0 0-.451.341l-.791 2.789c-.068.24.074.508.323.579a.47.47 0 0 0 .579-.323l.695-2.449 1.984-.002a18.96 18.96 0 0 0-.081 1.816c0 .496.035.985.104 1.462a3.13 3.13 0 0 0-.622.236c-.769.394-1.192 1.077-1.192 1.923 0 .837.64 1.794 1.381 2.902.935 1.398 1.994 2.983 1.994 4.598a.47.47 0 0 0 .469.469.47.47 0 0 0 .469-.469c0-1.9-1.193-3.684-2.152-5.119-.629-.941-1.223-1.829-1.223-2.381 0-.646.47-1.064 1.055-1.235.275 1.128.746 2.163 1.389 3.031 1.109 1.494 2.596 2.317 4.188 2.317s3.079-.823 4.188-2.317c.644-.867 1.114-1.903 1.389-3.031.121.035.259.086.394.157.445.236.661.588.661 1.078 0 .552-.594 1.441-1.223 2.381-.959 1.434-2.152 3.219-2.152 5.119a.47.47 0 0 0 .469.469.47.47 0 0 0 .469-.469c0-1.615 1.059-3.2 1.994-4.598.741-1.108 1.381-2.066 1.381-2.902 0-.846-.424-1.529-1.192-1.923-.221-.113-.438-.187-.622-.236a10.29 10.29 0 0 0 .104-1.462l-.071-1.816 1.927.001.694 2.448a.47.47 0 0 0 .451.341c.306 0 .535-.303.451-.597zm-9.312-9.741c.525 0 1.406.134 1.406 1.031a1.87 1.87 0 0 1-.148.695 8.09 8.09 0 0 0-1.277-.097 7.86 7.86 0 0 0-1.24.095c-.094-.229-.147-.469-.147-.692 0-.897.881-1.031 1.406-1.031zm-.469 16.129c-2.495-.327-4.453-3.237-4.453-6.766 0-2.697.466-4.473 1.459-5.538l2.994 2.281v10.024zm.461-10.866L9.31 6.249c.707-.427 1.595-.636 2.695-.636 1.126 0 2.029.209 2.74.638l-2.729 2.06zm.477 10.866V9.14l3.023-2.281c.987 1.05 1.43 2.788 1.43 5.552 0 3.53-1.958 6.439-4.453 6.766zm-2.203-2.734c-.823-.93-1.315-2.437-1.315-4.032 0-1.129.096-2.024.293-2.734a.47.47 0 0 0-.327-.577.47.47 0 0 0-.577.327c-.22.793-.327 1.769-.327 2.985 0 1.845.565 3.541 1.55 4.654.165.186.468.211.662.04a.47.47 0 0 0 .04-.662zm5.397-7.038c-.065-.239-.337-.392-.576-.329a.47.47 0 0 0-.329.576c.192.702.286 1.604.284 2.759 0 .914-.159 1.807-.46 2.583a.48.48 0 0 0 .267.607c.238.092.515-.029.607-.267.357-.927.524-1.931.524-2.922-.001-1.257-.102-2.212-.318-3.006zm-1.602 7.846a.47.47 0 0 0 .469-.469.47.47 0 0 0-.469-.469.47.47 0 0 0-.469.469.47.47 0 0 0 .469.469z"></path></svg>