<svg class="position-relative z-1" xmlns="http://www.w3.org/2000/svg" width="24" height="24" fill="currentColor"><use href="#B"></use><use href="#C"></use><use href="#B" x="15.29"></use><use href="#B" y="-5.618"></use><use href="#C" y="-5.618"></use><use href="#B" x="15.29" y="-5.618"></use><use href="#D"></use><path d="M13.689 5.902c-.294 0-.533.239-.533.533A1.16 1.16 0 0 1 12 7.591c-.294 0-.533.239-.533.533s.239.533.533.533c1.225 0 2.222-.997 2.222-2.222 0-.295-.239-.533-.533-.533zm9.778-3.662H.533c-.295 0-.533.239-.533.533v14.631a4.36 4.36 0 0 0 4.356 4.356 4.36 4.36 0 0 0 3.822-2.269 4.36 4.36 0 0 0 7.644 0A4.36 4.36 0 0 0 24 17.404V2.773c0-.294-.239-.533-.533-.533zm-22.4 1.067h6.578v3.129c0 1.813-1.475 3.289-3.289 3.289S1.067 8.249 1.067 6.436V3.307zm6.578 14.098c0 1.814-1.475 3.289-3.289 3.289s-3.289-1.475-3.289-3.289v-2.767c.799.921 1.977 1.505 3.289 1.505s2.49-.584 3.289-1.505v2.767zm0-5.618c0 1.813-1.475 3.289-3.289 3.289S1.067 13.6 1.067 11.787v-2.5c.799.921 1.977 1.505 3.289 1.505s2.49-.584 3.289-1.505v2.5zm7.644 5.618c0 1.814-1.475 3.289-3.289 3.289s-3.289-1.475-3.289-3.289v-2.767c.799.921 1.977 1.505 3.289 1.505s2.49-.584 3.289-1.505v2.767zm0-5.618c0 1.813-1.475 3.289-3.289 3.289S8.711 13.6 8.711 11.787v-2.5c.799.921 1.977 1.505 3.289 1.505s2.49-.584 3.289-1.505v2.5zM12 9.724c-1.813 0-3.289-1.475-3.289-3.289V3.307h6.578v3.129h0c0 1.813-1.475 3.289-3.289 3.289zm10.933 7.68c0 1.814-1.475 3.289-3.289 3.289s-3.289-1.475-3.289-3.289v-2.767c.799.921 1.977 1.505 3.289 1.505s2.49-.584 3.289-1.505v2.767zm0-5.618c0 1.813-1.475 3.289-3.289 3.289s-3.289-1.476-3.289-3.289v-2.5c.799.921 1.977 1.505 3.289 1.505s2.49-.584 3.289-1.505v2.5zm0-5.351c0 1.813-1.475 3.289-3.289 3.289s-3.289-1.475-3.289-3.289V3.307h6.578v3.129h0z"></path><use href="#D" x="15.29"></use><defs><path id="B" d="M6.043 16.871c-.295 0-.533.239-.533.533 0 .637-.518 1.156-1.156 1.156-.295 0-.533.239-.533.533s.239.533.533.533c1.225 0 2.222-.997 2.222-2.222 0-.294-.239-.533-.533-.533z"></path><path id="C" d="M13.689 16.871c-.294 0-.533.239-.533.533 0 .637-.518 1.156-1.156 1.156-.294 0-.533.239-.533.533s.239.533.533.533c1.225 0 2.222-.997 2.222-2.222 0-.294-.239-.533-.533-.533z"></path><path id="D" d="M4.354 8.658c1.225 0 2.222-.997 2.222-2.222 0-.295-.239-.533-.533-.533s-.533.239-.533.533c0 .637-.518 1.156-1.156 1.156-.295 0-.533.239-.533.533s.239.533.533.533z"></path></defs></svg>